<svg width="206" height="1160" viewBox="0 0 206 1160" fill="none" xmlns="http://www.w3.org/2000/svg">
<g clip-path="url(#clip0_58_252)">
<path d="M117.947 30.3999C114.28 23.7066 106.347 21.0933 99.2933 19.8133C94.7467 18.7866 91.16 22.1066 88.16 24.9599C84.3467 26.1866 80.12 24.9199 76.2533 26.1466C73.68 27.5599 72.0133 30.0933 70.48 32.5066C69.0533 37.3866 70.92 42.8799 68.28 47.4533C64.9467 54.5066 61.5867 61.5333 58.5333 68.7199C59.76 70.8533 60.9867 72.9866 62.2 75.1333C64.8933 66.2933 69.2533 58.1333 73.28 49.8533C74.2933 49.8399 76.3467 49.7999 77.3733 49.7733C77.3467 48.0266 77.2667 46.2799 77.0533 44.5333C76.3733 40.3333 75.64 36.1466 75.1467 31.9199C78.68 31.2799 82.2267 30.7599 85.7867 30.3066C82.4933 33.3599 80.56 37.3866 80.4267 41.9066C81.6 41.3866 82.7733 40.8666 83.9467 40.3466C85 41.4399 86.0667 42.5199 87.12 43.6133L85.9867 43.9599C83.7333 45.3599 81.56 46.8799 79.3733 48.3999C79.88 48.7466 80.8933 49.4533 81.4 49.7999C83.8133 49.9199 86.2267 49.8933 88.6267 49.8933C93.0667 64.3866 93.56 79.7199 95.2667 94.6933C95.9333 108.813 97.16 122.907 98.6267 136.96C99.8133 143.853 99.04 150.867 99.56 157.813C100.227 169.453 100.827 181.107 100.56 192.76C98.08 193.187 95.5867 193.573 93.1067 193.973C93.1467 195.667 93.2 197.347 93.24 199.04C104.787 198.027 116.573 196.213 128.093 198.133C129.56 201.027 128.893 204.933 126.08 206.76C123.68 208.16 120.8 208.253 118.093 208.48C109.8 208.84 101.4 208.813 93.24 207.093C93.2133 208.693 93.2667 210.307 93.4133 211.92C95.6267 213.707 98.84 213.24 101.507 213.907C101.813 217.293 102.12 220.693 102.32 224.093C98.4267 223.373 94.5067 222.867 90.56 222.533C90.64 217.147 90.8933 211.747 90.8933 206.36C90.16 211.56 89.72 216.8 89.56 222.067C88.96 219.947 88.3467 217.853 87.8133 215.733C87.9333 218.107 88.0267 220.48 88.1067 222.853C82.7733 224.707 77.08 227.667 75.32 233.48C73.9067 239.573 75.7333 246.547 80.4933 250.76C82.0267 252.507 84.3467 253.747 85.1867 255.987C81.4133 275.093 77.0267 294.133 70.6933 312.587C70.9067 315.16 71.2267 317.72 71.4533 320.307C75.9067 305.973 80.1067 291.56 83.8133 277.013C84.6533 270.067 86.56 263.333 87.8 256.467C93.3867 260.04 99.8267 261.893 106.253 263.28C107.813 278.56 108.453 293.907 109.907 309.2C109.867 315.907 110.32 322.573 111.187 329.227C111.493 345.893 113.88 362.493 113.76 379.16C109.387 381.307 105.733 385.333 106.36 390.533C105.027 396.533 112.307 398.067 114.973 401.76C117.44 414.373 116.2 427.36 117.52 440.107C118.107 461.4 120.013 482.627 120.627 503.933C120.44 512.973 121.533 521.973 121.507 531.013C116.307 533.507 113.56 539.573 114.387 545.173C114.373 550.48 120.48 551.973 124.267 554.04C124.48 568.88 124.627 583.733 125.2 598.56C126.547 611.413 125.987 624.373 127.12 637.24C127 653.747 127.92 670.227 128.093 686.733C128.387 698.64 129.693 710.587 128.933 722.493C126.587 726.64 123.093 730.227 122.013 735.027C118.413 749.32 117.973 764.12 116.827 778.76C116.213 794.733 115.6 810.747 116.813 826.72C117.16 833.893 117.547 841.307 120.493 847.973C122.453 851.8 126.427 853.933 129.733 856.453C130.333 867.867 129.813 879.307 130.027 890.733C129.56 895.907 136.107 898.573 135.2 903.893C134.92 915.24 136.573 926.573 135.893 937.907C130.987 934.413 127.947 929.08 123.747 924.88C114.107 914.187 98.7333 909.387 84.64 911.72C76.6 912.307 68.6533 914.427 61.5067 918.2C49.28 926.16 41.4533 939.587 38.3733 953.653C36.7733 961.72 37.8933 969.92 38.6133 978.013C37.8667 976.827 37.1733 975.627 36.5067 974.413C35.5067 975.747 34.5067 977.093 33.4933 978.453C36.8133 982.053 40.5067 985.373 43.12 989.56C47.3867 996.933 53.2 1003.52 60.1867 1008.43C72.4 1015.4 87.6133 1017.12 100.96 1012.45C109.8 1009.96 117.267 1004.04 123.4 997.387C127.693 993.04 128.68 985.107 135.773 984.36C136.547 988.36 138.92 992.587 137.2 996.653C132.733 1006.49 133.853 1017.6 134.507 1028.08C133.187 1031.75 130.907 1035.05 130.08 1038.92C124.92 1064.72 121.76 1090.99 121.973 1117.32C121.907 1125.71 121.8 1135.44 128.133 1141.85C133.533 1149.04 142.547 1152.11 151.107 1153.45C160.547 1154.51 170.36 1155.08 179.573 1152.37C187.733 1148.92 194.72 1141.89 196.4 1132.97C198.92 1120.79 196.213 1108.31 195.16 1096.12C192.96 1081.07 192.12 1065.79 188.693 1050.93C187.24 1043.95 186.08 1036.59 181.987 1030.57C179.027 1026.75 180.44 1021.73 180.547 1017.32C181.547 1010.36 181.787 1003.2 180.133 996.32C179.213 992.28 172.907 991.507 173.987 986.733C174.667 958.187 173.107 929.667 170.733 901.253C172.107 898.053 175.533 895.8 175.627 892.04C176.6 878.893 175.373 865.72 175.6 852.56C178.88 850.32 182.627 847.747 183.013 843.413C185.253 837.147 184.653 830.507 184.667 823.987C185.267 805.267 181.373 786.827 179.453 768.28C178.587 758.867 176.76 749.6 175.213 740.293C173.907 733.84 171.387 726.4 164.693 723.813C162.573 723.093 163.547 720.373 163.32 718.747C165.093 691.6 162.36 664.48 160.813 637.387C159.907 610.227 157.267 583.147 155.84 556.013C155.48 551.12 160.8 548.373 161.387 543.667C162.733 537.733 159.507 532 154.16 529.427C153.8 523.627 152.693 517.893 152.493 512.08C150.72 501.053 151.533 489.827 150.213 478.747C150.04 462.667 147.773 446.72 147.027 430.667C146.133 419.973 144.667 409.333 144.493 398.587C150.373 396.747 148.627 389.827 147.693 385.253C146.667 380.787 140.653 379.267 140.973 374.333C140.467 358.427 139.453 342.507 139.187 326.573C137.627 301.693 135.307 276.84 133.08 252C132.4 238.747 129.907 225.627 129.56 212.373C132 208.68 135.253 204.773 134.04 200C134.373 195.72 130.627 193.267 127.307 191.6C125.707 162.973 121.56 134.587 118.613 106.093C116.893 87.6266 113.987 69.2666 112.8 50.7333C115.427 47.9733 119.04 45.4266 119.173 41.2266C119.24 37.6399 120.147 33.5599 117.947 30.3999ZM110.04 29.3466C115.947 32.6399 115.267 41.3999 111.16 45.8933L110.467 45.9333C107.133 47.0666 103.52 47.8266 100.04 46.9466C95.56 45.1066 92.3733 41.3333 89.7333 37.4133C91.4 33.4799 91.1733 27.5066 96.04 25.9866C100.867 23.7199 105.96 26.8799 110.04 29.3466ZM107.427 53.5199C112.093 86.2799 113.693 119.387 118.72 152.12C119.693 161.76 121.027 171.387 121.08 181.107C121.68 184.72 121.987 188.373 122.213 192.04L120.867 192C117.16 192.013 113.453 192 109.747 191.773L108.667 192.013C107.973 192.013 106.6 192.013 105.907 192C105.88 184.107 105.88 176.213 105.307 168.333C104.533 156.253 105.053 144.067 103.307 132.053C101.347 113.92 101.293 95.6399 99.0133 77.5466C97.3067 69.0799 96.9467 60.3866 94.76 52.0266C98.9333 52.9199 103.173 53.3599 107.427 53.5199ZM124.347 213.253L124.107 214.307C126.933 238.347 128.587 262.52 131.12 286.6C131.307 304.947 134.787 323.133 134.053 341.52C135.387 345.853 135.213 350.427 134.987 354.893C135.787 362.68 135.227 370.547 135.667 378.36C130.267 378.52 124.88 378.867 119.48 378.893C119.333 374.88 118.933 370.88 118.853 366.88C117.64 358.787 117.36 350.467 117.587 342.32C115.56 324.347 115.053 306.2 113.64 288.16C112.827 277.92 111.4 267.627 112.333 257.347C111.267 244.813 108.053 232.36 108.093 219.76C105.853 218.893 106.64 212.08 109.027 214.56C114.147 214.32 119.28 214.067 124.347 213.253ZM103.253 229.693C103.347 230.453 103.56 231.987 103.667 232.747C100.693 231.987 97.7067 231.28 94.7067 230.707C93.8133 232.347 92.9067 234 92.0533 235.667C96.3067 236.053 100.44 237.173 104.12 239.373C104.64 242.16 104.84 244.987 104.533 247.813C98.7733 247.653 94 244.333 89.84 240.693C89.0133 243.747 87.4533 246.507 84.7333 248.253C82 244.36 79.36 239.773 80.3733 234.827C82.88 231.36 86.4933 228.6 90.4133 226.933C94.7867 227.267 98.9733 228.8 103.253 229.693ZM105.573 254.12C105.573 254.92 105.587 256.533 105.587 257.333C99.1067 255.52 89.92 254.613 87.5467 247.2C93.1733 250.387 99.0667 253.267 105.573 254.12ZM142.147 383.987C143.253 387.52 143.533 391.227 142.44 394.813C134.987 394.493 127.547 395.36 120.093 395.307C117.6 395.027 114.4 395.293 112.867 392.88C110.733 390.44 112.16 385.96 115.467 385.533C124.133 383.107 133.253 384.24 142.147 383.987ZM139.16 400.133C139.013 401.613 138.853 403.107 138.68 404.587C140.093 412.053 140.907 419.653 141.12 427.253L141.867 426.08C141.827 427.867 141.707 429.64 141.507 431.427C142.333 436.933 142.227 442.52 142.253 448.093L142.707 448.04C144.253 471.147 145.56 494.253 146.973 517.36C147.173 521.867 148.613 526.68 146.707 531.027C145.48 530.907 143.04 530.68 141.813 530.573C137.52 530.88 133.227 531.12 128.987 531.8L129 531.267C126.44 528.093 126.907 523.827 126.52 520.027C125.587 508.507 126.24 496.92 125.04 485.413C124.067 458.627 121.427 431.867 121.92 405.053C121.547 403.76 121.147 402.48 120.733 401.2C126.88 400.907 133.013 400.413 139.16 400.133ZM155.467 537.067C155.333 540.627 156.867 546.307 152.227 547.627C144.84 549.293 137.16 549.12 129.653 548.573C126.547 548.12 122.64 548.04 120.827 545.027C120.533 542.467 120.68 539.907 120.693 537.36C128.653 536.84 136.64 537.547 144.6 536.8C148.213 536.453 151.853 536.64 155.467 537.067ZM150.173 554C152.347 573.707 152.68 593.573 154.093 613.333C155.933 637.76 156.533 662.28 158.733 686.68C159.733 698.733 158.24 710.747 157.867 722.787L156.787 722.453C154.64 722.533 152.48 722.613 150.32 722.72C147.133 722.72 143.933 722.853 140.733 722.653C138.587 722.68 136.44 722.72 134.293 722.747C134 717.733 134.133 712.707 134.32 707.707C133.613 699.44 134.04 691.133 133.693 682.853C132.987 677.347 132.333 671.693 133.44 666.187C131.547 654.427 133.4 642.453 132.293 630.627C131.36 621.773 131.253 612.88 131.253 603.987C131.347 595.08 129.893 586.24 129.987 577.347C130.027 569.733 129.84 562.133 129.693 554.52C136.533 554.84 143.36 554.4 150.173 554ZM163.48 729.093C169.72 733.907 170.653 742.68 170.947 750.027C171.507 751.213 172 752.533 171.613 753.88C173.853 763.08 174.987 772.533 175.667 781.96L176.2 780.853C176.16 781.827 176.067 783.773 176.027 784.747C178.813 798.973 179.693 813.507 179.44 827.987C179.213 833.067 180.36 838.8 177.053 843.147C177.027 843.733 177 844.92 176.987 845.507C176.453 845.613 175.387 845.853 174.853 845.96C171.973 850.52 165.973 850.453 161.24 851.32C151.787 852.027 142.04 852.947 132.72 850.773C127.187 849.427 123.693 844.16 123.173 838.707C120.32 820.64 121.24 802.227 121.853 784.027C122.133 777.653 121.987 771.213 123.4 764.96C122.947 763.867 122.187 762.64 123.387 761.72C123.333 756.64 123.747 751.427 125.867 746.747C126.027 741 126.307 734.307 130.84 730.147C135.307 727.187 140.973 728.173 146.027 728.04C151.84 728.307 157.84 727.413 163.48 729.093ZM170.893 880.027C170.507 885.04 172.173 891.827 166.733 894.68L165.68 894.427C156.133 896 145.68 896.947 136.467 893.453C134.32 881.973 135.667 870.147 135.6 858.52C139.453 858.493 143.307 858.267 147.147 858.44C154.2 856.52 161.547 856.413 168.733 855.4C171.48 863.267 170.653 871.813 170.893 880.027ZM173.373 858.293C174.333 866.44 174.067 874.68 173.387 882.853C172.173 874.72 172.04 866.413 173.373 858.293ZM164.68 900.587C167.04 912.2 167.24 924.067 167.787 935.867C169.333 951.427 168.56 967.067 168.76 982.667C168.68 985.947 168.96 989.36 167.88 992.547C159.533 994.027 151 994.4 142.533 994.667C142.147 989.867 141.88 985.04 141.747 980.227C131.16 980.147 120.547 980.907 109.973 980.147C104.187 979.693 97.7067 978.173 94.2533 973.053C89.1333 965.147 89.9333 952.28 98.7867 947.4C107.52 944.253 117.027 946.56 126.067 945.387C131.8 945.2 136.973 942.6 141.84 939.8C142.107 926.733 140.08 913.733 140.613 900.653C148.613 901.48 156.68 901.24 164.68 900.587ZM114.027 923.933C117.36 926.387 121.48 928.707 122.813 932.893C124.467 934.867 126.067 936.88 127.653 938.92C123.04 939.707 118.333 939.933 113.653 939.573C106.507 940.08 98.7467 940.733 93.2133 945.867C82.8133 953.973 82.56 971.547 92.8667 979.8C101.813 986.133 113.36 985.707 123.827 985.907C121.92 992.547 116.333 996.987 111.107 1001.04C102.133 1007.8 90.52 1010.56 79.4267 1009.41C65.28 1007.27 53.0667 997.227 46.6933 984.653C40.5467 967.48 41.8 946.44 54.0933 932.2C62.2267 921.747 75.7467 916.947 88.68 917.067C97.6267 916.427 106.667 918.8 114.027 923.933ZM174.187 997.36C176.693 1004.4 175.613 1011.96 174.92 1019.23C175.053 1021.72 174.48 1024.2 174.08 1026.67C170.653 1026.96 167.227 1027.44 163.787 1027.41C157.733 1027.97 151.64 1027.75 145.573 1027.57C143.48 1027.69 140.2 1027.57 139.76 1024.95C138.56 1016.72 139.347 1008.28 141.133 1000.19C143.027 1000.24 144.92 1000.29 146.813 1000.43C155.907 999.093 165.2 999.507 174.187 997.36ZM156.293 1034.12C162.2 1033.45 168.12 1032.47 174.08 1032.88C175.853 1032.93 178.2 1033.16 178.84 1035.19C183.32 1045.44 185.253 1056.63 186.307 1067.72C187.453 1071.08 187.507 1074.64 186.88 1078.13C189.093 1082.99 188.72 1088.47 189.587 1093.64C190.613 1104.19 192.493 1114.72 192.387 1125.36C192.093 1131.44 190.427 1138.49 184.773 1141.81C183.893 1145.61 179.64 1146.75 176.413 1147.85C166.013 1150.55 154.933 1149.44 144.613 1146.87C137 1144.61 128.973 1138.4 128.347 1130.04C126.613 1123.27 127.053 1116.25 127.16 1109.36C127.347 1099.37 127.853 1089.37 129.533 1079.52C129.293 1075.19 129.573 1070.72 131.307 1066.69C131.48 1059.53 132.947 1052.49 134.067 1045.44C134.92 1040.91 136.093 1035.87 139.867 1032.85C145.36 1032.99 150.76 1034.84 156.293 1034.12Z" fill="#120B06"/>
<path d="M110.04 29.3464C105.96 26.8798 100.867 23.7198 96.04 25.9864C91.1733 27.5064 91.4 33.4798 89.7333 37.4131C93.2133 40.5598 96.3733 44.3598 100.8 46.1598C104.027 46.5198 107.253 46.1331 110.467 45.9331L111.16 45.8931C115.267 41.3998 115.947 32.6398 110.04 29.3464Z" fill="#68655E"/>
<path d="M85.7867 30.3066C82.2267 30.76 78.68 31.28 75.1467 31.92C75.64 36.1466 76.3733 40.3333 77.0533 44.5333C80.0267 44.3733 83.0133 44.24 85.9867 43.96L87.12 43.6133C86.0667 42.52 85 41.44 83.9467 40.3466C82.7733 40.8666 81.6 41.3866 80.4267 41.9066C80.56 37.3866 82.4933 33.36 85.7867 30.3066Z" fill="#6F6B68"/>
<path d="M100.8 46.1598C96.3733 44.3598 93.2133 40.5598 89.7333 37.4131C92.3733 41.3331 95.56 45.1064 100.04 46.9464C103.52 47.8264 107.133 47.0664 110.467 45.9331C107.253 46.1331 104.027 46.5198 100.8 46.1598Z" fill="#F4F0F1"/>
<path d="M163.787 1027.41C157.72 1027.11 151.64 1027.17 145.573 1027.57C151.64 1027.75 157.733 1027.97 163.787 1027.41Z" fill="#F4F0F1"/>
<path d="M85.9867 43.96C83.0133 44.24 80.0267 44.3733 77.0533 44.5333C77.2667 46.28 77.3467 48.0266 77.3733 49.7733C76.4667 62.9466 74.76 76.12 74.9867 89.36C75.9467 100.4 76.1333 111.507 78.0133 122.453C81.9333 146.387 86.5467 170.32 87.0133 194.627C87.0133 201.68 87.6267 208.693 87.8133 215.733C88.3467 217.853 88.96 219.947 89.56 222.067C89.72 216.8 90.16 211.56 90.8933 206.36C90.6 177.253 85.9467 148.453 81.1867 119.813C78.7867 106.667 78.52 93.3066 78.32 80C78.4533 69.8666 78.8533 59.6533 81.4 49.8C80.8933 49.4533 79.88 48.7466 79.3733 48.4C81.56 46.88 83.7333 45.36 85.9867 43.96Z" fill="#29251A"/>
<path d="M107.427 53.5202C103.173 53.3602 98.9333 52.9202 94.76 52.0269C96.9467 60.3869 97.3067 69.0802 99.0133 77.5469C101.293 95.6402 101.347 113.92 103.307 132.054C105.053 144.067 104.533 156.254 105.307 168.334C105.88 176.214 105.88 184.107 105.907 192C106.6 192.014 107.973 192.014 108.667 192.014C107.64 176.467 106.68 160.894 106.853 145.294C106.96 137.68 105.707 130.147 104.6 122.654C103.227 113.614 103.733 104.44 102.92 95.3602C101.76 82.2669 99.96 69.2535 98.52 56.1869C100.48 55.8935 102.44 55.5869 104.4 55.2935C108.32 69.2002 108.093 83.7602 110.467 97.9335C112.16 115.68 113.88 133.427 116.16 151.107C118 163.92 119.907 176.787 119.427 189.76C116.187 190.36 112.96 191.014 109.747 191.774C113.453 192 117.16 192.014 120.867 192C120.96 188.374 121.067 184.734 121.08 181.107C121.027 171.387 119.693 161.76 118.72 152.12C113.693 119.387 112.093 86.2802 107.427 53.5202Z" fill="#BC7556"/>
<path d="M104.4 55.2935C102.44 55.5868 100.48 55.8935 98.52 56.1868C99.96 69.2535 101.76 82.2668 102.92 95.3601C103.733 104.44 103.227 113.613 104.6 122.653C105.707 130.147 106.96 137.68 106.853 145.293C106.68 160.893 107.64 176.467 108.667 192.013L109.747 191.773C112.96 191.013 116.187 190.36 119.427 189.76C119.907 176.787 118 163.92 116.16 151.107C113.88 133.427 112.16 115.68 110.467 97.9335C108.093 83.7601 108.32 69.2001 104.4 55.2935Z" fill="#B46237"/>
<path d="M58.5333 68.7202C50.1867 88.7469 48.56 110.614 47.2667 132.014C46.7733 144.88 47.0533 157.787 48.5733 170.574C49.2133 173.147 47.24 177.654 49.8 179.027C50.32 179.48 51.36 180.387 51.88 180.84C52.3867 184.507 52.12 188.227 52.0667 191.92C51.7867 188.387 52.7733 184.56 51.0533 181.28C50.7867 181.747 50.24 182.667 49.9733 183.134C49.1733 189.827 50.6 196.64 52.2267 203.147C55.2133 216.16 55.2667 229.6 57.6533 242.72C60.9467 263.014 62.6667 283.52 64.6133 303.96C64.64 313.347 68.04 323.174 64.1733 332.24C54.4933 359.587 44.36 386.92 38.6133 415.427C35.1733 428.574 32.3333 441.934 30.3733 455.414C27.56 470.72 26.8533 486.334 24.28 501.68C24.4133 502.067 24.6933 502.827 24.84 503.214C25.52 503.294 26.88 503.44 27.56 503.52C28.2933 491.227 30.12 479.054 31.4933 466.84C33.5467 458.574 34.9467 450.174 35.9867 441.72C38.4133 434.454 38.5067 426.68 40.84 419.4C43.4667 406.027 47.48 392.96 51.0533 379.814C55.4933 364.254 62.2533 349.427 66.3867 333.814C66.6933 333.894 67.28 334.067 67.5733 334.147L68.6933 334.467C68.8533 329.107 69.0667 323.76 69.3333 318.414C70.1333 338.04 69.28 357.694 69.5733 377.334C69.72 401.774 69.9733 426.214 69.84 450.667C69.6267 464.16 71.76 477.587 70.92 491.094C70.4533 487.12 70 483.147 69.44 479.2C68.5867 483.094 67.8 487.014 67.4667 490.987C66.72 509.094 68.5067 527.334 66.08 545.36C66.36 559.694 63.8 573.854 63.04 588.134C61.2267 601.04 60.48 614.067 58.6267 626.974C56.88 640.64 56.0933 654.414 53.48 667.987C51.88 675.44 51.3067 683.054 49.9867 690.56C45.4267 717.227 38.5867 743.48 35.1467 770.347C30.52 792.707 27.6 815.36 24.1067 837.907C20.7867 862.014 18.04 886.307 18.0133 910.68C18.76 923.814 20.28 936.934 22.92 949.84C25.0133 959.814 27.6667 969.92 33.4933 978.454C34.5067 977.094 35.5067 975.747 36.5067 974.414C31.96 964.427 28.32 953.947 26.76 943.054C22.3867 922.374 22.64 901.054 24.4533 880.094C25.2133 863.067 27.7333 846.214 30.12 829.36C33.3733 810.44 35.8267 791.374 39.7467 772.574C43.1067 752.227 46.7467 731.92 51.0533 711.76C55.8267 685.227 60.3867 658.627 63.1333 631.8C64.4 613.174 68.0933 594.787 68.9333 576.12C70.9733 558.96 71.2 541.654 72.2133 524.414C73.1333 503.4 72.44 482.36 72.8267 461.334C72.84 444 72.96 426.667 72.36 409.334C73.0133 388.454 72.7467 367.56 72.7733 346.68C72.8133 337.867 71.44 329.12 71.4533 320.307C71.2267 317.72 70.9067 315.16 70.6933 312.587C69.6533 297.627 67.92 282.747 66.24 267.854C65.9467 259.84 64.6533 251.934 63.2933 244.054C60.96 230.467 60.5733 216.587 57.6267 203.107C55.0933 193.44 54.5333 183.414 53.8533 173.494C51.8933 158.84 52.7333 144.014 52.68 129.28C53.6 110.947 55.8133 92.4535 62.2 75.1335C60.9867 72.9869 59.76 70.8535 58.5333 68.7202ZM49.28 149.52C48.8667 142.187 48.8533 134.827 49.2133 127.494C49.9867 134.814 49.92 142.187 49.28 149.52ZM50.8933 171.454C49.7333 167.654 49.9467 163.694 50.56 159.8C51.2933 163.64 51.5333 167.574 50.8933 171.454ZM59.08 230.307C60.6 230.987 60.16 234.214 58.2533 233.734C56.7333 233.04 57.1733 229.814 59.08 230.307ZM60.32 239.614C61.56 240.8 61.5333 243.2 60.3067 244.4C58.2133 244.454 58.2133 239.56 60.32 239.614ZM62.9467 256.907C64.1467 258.107 64.1467 260.494 62.9467 261.707C60.84 261.774 60.8267 256.854 62.9467 256.907ZM65.5867 278.214C66.8 279.947 66.76 282.707 65.5733 284.44C63.6267 283.84 63.6 278.787 65.5867 278.214ZM66.76 287.64C67.1467 292.547 67.2 297.467 67.12 302.387L66.2 302.334C66.04 297.427 66.16 292.52 66.76 287.64ZM69.3867 491.867C69.8533 507.027 69.4667 522.227 69.72 537.4C68.4 546.734 69.0267 556.187 67.9467 565.534C65.7867 553.414 69.6 541.414 69.0267 529.294C69.44 516.814 68.5067 504.32 69.3867 491.867ZM62.8667 610.147C64.0267 612.44 64.0667 615.64 62.88 617.947C61 616.707 61.12 611.454 62.8667 610.147ZM41.8667 746.96C37.4533 747.094 43.8667 750.974 41.8667 746.96ZM24.2 854.174C25.4 855.92 25.3867 858.68 24.2267 860.467C22.32 859.814 22.2133 854.747 24.2 854.174ZM23.4133 875.8L21.96 875.854C22 872.16 22.1333 868.467 22.48 864.8C23.1067 868.427 23.3867 872.107 23.4133 875.8ZM21.4 882.494C22.32 897.654 21.3333 912.867 22.0133 928.067L20.6667 927.987C20.56 919.547 21.2 911.12 20.9733 902.68C20.8267 895.947 20.48 889.187 21.4 882.494Z" fill="#2A241F"/>
<path d="M49.28 149.52C49.92 142.186 49.9867 134.813 49.2133 127.493C48.8533 134.826 48.8667 142.186 49.28 149.52Z" fill="#3B3738"/>
<path d="M50.8933 171.453C51.5333 167.573 51.2933 163.64 50.56 159.8C49.9467 163.693 49.7333 167.653 50.8933 171.453Z" fill="#4F4B48"/>
<path d="M122.213 192.04C121.987 188.373 121.68 184.72 121.08 181.106C121.067 184.733 120.96 188.373 120.867 192L122.213 192.04Z" fill="#785F5B"/>
<path d="M128.093 198.133C116.573 196.213 104.787 198.027 93.24 199.04C93.32 201.72 93.3067 204.4 93.24 207.093C101.4 208.813 109.8 208.84 118.093 208.48C120.8 208.253 123.68 208.16 126.08 206.76C128.893 204.933 129.56 201.027 128.093 198.133Z" fill="#3F3B38"/>
<path d="M124.347 213.253C119.28 214.067 114.147 214.32 109.027 214.56C108.92 216.32 108.493 218.04 108.093 219.76C108.053 232.36 111.267 244.813 112.333 257.347C111.4 267.627 112.827 277.92 113.64 288.16C113.627 284.227 113.973 280.293 114.453 276.387C116.187 284.213 115.547 292.253 116.28 300.187C117.093 309.787 117.133 319.453 118.413 329.027C119.08 333.467 118.587 337.96 117.587 342.32C117.36 350.467 117.64 358.787 118.853 366.88C119.16 365.693 119.76 363.32 120.067 362.147C120.72 366.853 121.013 371.613 121.013 376.373C125.24 376.28 129.48 376.16 133.707 376C134.053 367.04 133.253 358.12 132.96 349.173C133.667 351.067 134.387 352.96 134.987 354.893C135.213 350.427 135.387 345.853 134.053 341.52C131.373 332.373 132.013 322.747 130.973 313.36C130.08 297.293 127.787 281.347 127.16 265.267C126.48 256.813 125.293 248.413 124.76 239.96C124.253 231.427 121.347 222.747 124.107 214.307L124.347 213.253Z" fill="#A55D38"/>
<path d="M109.027 214.56C106.64 212.08 105.853 218.893 108.093 219.76C108.493 218.04 108.92 216.32 109.027 214.56Z" fill="#B58F78"/>
<path d="M124.107 214.307C121.347 222.747 124.253 231.427 124.76 239.96C125.293 248.413 126.48 256.813 127.16 265.267C127.787 281.347 130.08 297.293 130.973 313.36C132.013 322.747 131.373 332.373 134.053 341.52C134.787 323.133 131.307 304.947 131.12 286.6C128.587 262.52 126.933 238.347 124.107 214.307Z" fill="#AF7559"/>
<path d="M103.253 229.693C98.9733 228.8 94.7867 227.266 90.4133 226.933C86.4933 228.6 82.88 231.36 80.3733 234.826C79.36 239.773 82 244.36 84.7333 248.253C87.4533 246.506 89.0133 243.746 89.84 240.693C90.4933 238.973 91.2133 237.293 92.0533 235.666C92.9067 234 93.8133 232.346 94.7067 230.706C97.7067 231.28 100.693 231.986 103.667 232.746C103.56 231.986 103.347 230.453 103.253 229.693ZM86.6133 232.773C87.0667 236.466 86.96 240.2 86.2933 243.866C82.68 240.986 81.3867 234.613 86.6133 232.773Z" fill="#484443"/>
<path d="M59.08 230.306C57.1733 229.813 56.7333 233.04 58.2533 233.733C60.16 234.213 60.6 230.986 59.08 230.306Z" fill="#4F4647"/>
<path d="M86.6133 232.773C81.3867 234.613 82.68 240.987 86.2933 243.867C86.96 240.2 87.0667 236.467 86.6133 232.773Z" fill="#1E1A18"/>
<path d="M104.12 239.373C100.44 237.173 96.3067 236.053 92.0533 235.667C91.2133 237.293 90.4933 238.973 89.84 240.693C94 244.333 98.7733 247.653 104.533 247.813C104.84 244.987 104.64 242.16 104.12 239.373Z" fill="#FFFEF6"/>
<path d="M60.32 239.613C58.2133 239.56 58.2133 244.453 60.3067 244.4C61.5333 243.2 61.56 240.8 60.32 239.613Z" fill="#474340"/>
<path d="M105.573 254.12C99.0667 253.267 93.1733 250.387 87.5467 247.2C89.92 254.614 99.1067 255.52 105.587 257.334C105.587 256.534 105.573 254.92 105.573 254.12Z" fill="#535353"/>
<path d="M142.707 448.04L142.253 448.093C143.227 465.453 144.187 482.813 145.227 500.173C146.6 510.413 146.627 520.72 146.707 531.027C148.613 526.68 147.173 521.867 146.973 517.36C145.56 494.253 144.253 471.147 142.707 448.04Z" fill="#FFF9E6"/>
<path d="M62.9467 256.907C60.8267 256.853 60.84 261.773 62.9467 261.707C64.1467 260.493 64.1467 258.107 62.9467 256.907Z" fill="#504748"/>
<path d="M116.28 300.187C115.547 292.253 116.187 284.213 114.453 276.387C113.973 280.293 113.627 284.227 113.64 288.16C115.053 306.2 115.56 324.347 117.587 342.32C118.587 337.96 119.08 333.467 118.413 329.027C117.133 319.453 117.093 309.787 116.28 300.187Z" fill="#B5785D"/>
<path d="M65.5867 278.213C63.6 278.787 63.6267 283.84 65.5733 284.44C66.76 282.707 66.8 279.947 65.5867 278.213Z" fill="#434039"/>
<path d="M66.76 287.64C66.16 292.52 66.04 297.427 66.2 302.333L67.12 302.387C67.2 297.467 67.1467 292.547 66.76 287.64Z" fill="#393631"/>
<path d="M69.5733 377.333C69.28 357.693 70.1333 338.04 69.3333 318.413C69.0667 323.76 68.8533 329.106 68.6933 334.466C68.84 371.866 68.3467 409.266 68.6533 446.666C68.48 456.933 68.4267 467.24 69.9333 477.426C69.0933 476.48 68.24 475.546 67.3867 474.613C67.6533 480.053 67.6667 485.52 67.4667 490.986C67.8 487.013 68.5867 483.093 69.44 479.2C70 483.146 70.4533 487.12 70.92 491.093C71.76 477.586 69.6267 464.16 69.84 450.666C69.9733 426.213 69.72 401.773 69.5733 377.333Z" fill="#433D3E"/>
<path d="M68.6933 334.466L67.5733 334.146C67 380.946 67.44 427.786 67.3867 474.613C68.24 475.546 69.0933 476.48 69.9333 477.426C68.4267 467.24 68.48 456.933 68.6533 446.666C68.3467 409.266 68.84 371.866 68.6933 334.466Z" fill="#090402"/>
<path d="M76.68 341.387L75.4 341.44C75.5733 359.627 75.6933 377.813 75.4667 396C75.3467 399.267 75.7333 402.52 76.1467 405.747C76.9067 396.747 76.44 387.693 76.56 378.653C76.1333 366.227 76.88 353.813 76.68 341.387Z" fill="#E3E1D0"/>
<path d="M134.987 354.893C134.387 352.96 133.667 351.067 132.96 349.173C133.253 358.12 134.053 367.04 133.707 376C129.48 376.16 125.24 376.28 121.013 376.373C121.013 371.613 120.72 366.853 120.067 362.147C119.76 363.32 119.16 365.693 118.853 366.88C118.933 370.88 119.333 374.88 119.48 378.893C124.88 378.867 130.267 378.52 135.667 378.36C135.227 370.547 135.787 362.68 134.987 354.893Z" fill="#A67459"/>
<path d="M142.147 383.987C133.253 384.24 124.133 383.107 115.467 385.533C112.16 385.96 110.733 390.44 112.867 392.88C114.4 395.293 117.6 395.027 120.093 395.307C127.547 395.36 134.987 394.493 142.44 394.813C143.533 391.227 143.253 387.52 142.147 383.987Z" fill="#474242"/>
<path d="M139.16 400.133C133.013 400.413 126.88 400.907 120.733 401.2C121.147 402.48 121.547 403.76 121.92 405.053C124.08 411.84 123.667 419.04 124.04 426.053C124.88 456.96 127.267 487.787 128.947 518.653C129.147 522.853 129.2 527.067 129 531.267L128.987 531.8C133.227 531.12 137.52 530.88 141.813 530.573C140.453 521.72 138.827 512.88 138.2 503.933C137.773 500.333 139.693 497.16 141.307 494.12C142.653 496.12 143.987 498.107 145.227 500.173C144.187 482.813 143.227 465.453 142.253 448.093C140.187 442.72 140.36 436.973 141.507 431.427C141.707 429.64 141.827 427.867 141.867 426.08L141.12 427.253C140.76 427.84 140.04 429 139.68 429.573C138.293 421.333 137.373 412.907 138.68 404.587C138.853 403.107 139.013 401.613 139.16 400.133Z" fill="#A05A37"/>
<path d="M138.68 404.587C137.373 412.907 138.293 421.334 139.68 429.574C140.04 429 140.76 427.84 141.12 427.254C140.907 419.654 140.093 412.054 138.68 404.587Z" fill="#AC7859"/>
<path d="M124.04 426.053C123.667 419.04 124.08 411.84 121.92 405.053C121.427 431.867 124.067 458.627 125.04 485.413C126.24 496.92 125.587 508.507 126.52 520.027C126.907 523.827 126.44 528.093 129 531.267C129.2 527.067 129.147 522.853 128.947 518.653C127.267 487.787 124.88 456.96 124.04 426.053Z" fill="#AA7256"/>
<path d="M76.4667 437.32C76.1467 430.013 77.5467 422.587 75.84 415.387C75.4 419.587 75.3467 423.813 75.5067 428.04C75.8933 441.92 75.12 455.813 75.9333 469.68C77.12 458.933 76.2533 448.107 76.4667 437.32Z" fill="#E8E3D4"/>
<path d="M69.3867 491.867C68.5067 504.32 69.44 516.813 69.0267 529.293C69.6 541.413 65.7867 553.413 67.9467 565.533C69.0267 556.187 68.4 546.733 69.72 537.4C69.4667 522.227 69.8533 507.027 69.3867 491.867Z" fill="#4D4948"/>
<path d="M141.507 431.427C140.36 436.973 140.187 442.72 142.253 448.093C142.227 442.52 142.333 436.933 141.507 431.427Z" fill="#CE7D50"/>
<path d="M141.307 494.12C139.693 497.16 137.773 500.333 138.2 503.933C138.827 512.88 140.453 521.72 141.813 530.573C143.04 530.68 145.48 530.907 146.707 531.027C146.627 520.72 146.6 510.413 145.227 500.173C143.987 498.107 142.653 496.12 141.307 494.12Z" fill="#391900"/>
<path d="M24.28 501.68C23.4133 503.187 24.08 504.987 24.0533 506.613C24.6533 512 23.76 517.413 24.3467 522.813C24.4267 518.933 24.84 515.067 25.3733 511.227C26.1867 515.16 26.9467 519.107 27.6 523.08C27.6933 516.56 28.3067 510.014 27.56 503.52C26.88 503.44 25.52 503.294 24.84 503.214C24.6933 502.827 24.4133 502.067 24.28 501.68Z" fill="#726C5E"/>
<path d="M25.3733 511.227C24.84 515.067 24.4267 518.933 24.3467 522.813C25.2267 536.44 25.5733 550.16 28.12 563.627C31.4133 580.933 34.68 598.32 34.8667 615.987C34 630.333 32.76 644.96 27.4667 658.453C25.8133 663.08 24.24 667.733 22.3867 672.28C24.72 675.147 27.5467 677.827 28.8 681.4C28.5733 685.467 25.72 688.813 23.4667 692.027C27.4933 690.2 30.1067 685.787 29.6667 681.373C29.84 678.013 26.8933 675.84 25.1467 673.373C31.2533 658.8 36.84 643.6 37.3333 627.64C37.4 615.733 38.2533 603.72 36.12 591.933C34.5867 575.84 29.76 560.227 29.04 544.04C28.04 537.08 28.52 530.027 27.6 523.08C26.9467 519.107 26.1867 515.16 25.3733 511.227Z" fill="#332C22"/>
<path d="M155.467 537.067C151.853 536.64 148.213 536.453 144.6 536.8C136.64 537.547 128.653 536.84 120.693 537.36C120.68 539.907 120.533 542.467 120.827 545.027C122.64 548.04 126.547 548.12 129.653 548.573C137.16 549.12 144.84 549.293 152.227 547.627C156.867 546.307 155.333 540.627 155.467 537.067Z" fill="#494542"/>
<path d="M150.173 554C143.36 554.4 136.533 554.84 129.693 554.52C129.84 562.133 130.027 569.733 129.987 577.347C129.893 586.24 131.347 595.08 131.253 603.987C131.253 612.88 131.36 621.773 132.293 630.627C133.4 642.453 131.547 654.427 133.44 666.187C134.28 662.427 134.747 658.573 134.613 654.72C134.267 644.053 134.813 633.36 133.747 622.733C132.613 611.24 133.493 599.667 132.427 588.187C131.453 577.6 131.667 566.96 131.733 556.347C137.227 556.333 142.72 556.453 148.2 556.813C150.173 571.147 150.133 585.64 151.293 600.053C151.973 613.373 153.32 626.667 153.893 640C154 664.507 158 688.92 156.667 713.453C156.747 716.44 155.067 718.947 153.773 721.507C154.773 721.813 155.787 722.12 156.787 722.453L157.867 722.787C158.24 710.747 159.733 698.733 158.733 686.68C156.533 662.28 155.933 637.76 154.093 613.333C152.68 593.573 152.347 573.707 150.173 554Z" fill="#A67055"/>
<path d="M148.2 556.813C142.72 556.453 137.227 556.333 131.733 556.347C131.667 566.96 131.453 577.6 132.427 588.187C133.493 599.667 132.613 611.24 133.747 622.733C134.813 633.36 134.267 644.053 134.613 654.72C134.747 658.573 134.28 662.427 133.44 666.187C132.333 671.693 132.987 677.347 133.693 682.853C133.68 677.333 133.96 671.827 134.4 666.347C135.68 682.947 135.987 699.64 136.12 716.307C135.453 713.44 134.8 710.587 134.32 707.707C134.133 712.707 134 717.733 134.293 722.747C136.44 722.72 138.587 722.68 140.733 722.653C138.387 721.907 135.907 720.68 135.613 717.947C140.427 719.88 145.613 720.507 150.773 720.44C150.653 721.013 150.427 722.147 150.32 722.72C152.48 722.613 154.64 722.533 156.787 722.453C155.787 722.12 154.773 721.813 153.773 721.507C155.067 718.947 156.747 716.44 156.667 713.453C158 688.92 154 664.507 153.893 640C153.32 626.667 151.973 613.373 151.293 600.053C150.133 585.64 150.173 571.147 148.2 556.813ZM144.76 671.84C145.253 677.493 145.8 684.107 141.267 688.373C139.893 680.947 139.627 673.147 142.28 665.96C143.387 667.773 144.707 669.6 144.76 671.84Z" fill="#9D5934"/>
<path d="M62.8667 610.146C61.12 611.453 61 616.706 62.88 617.946C64.0667 615.64 64.0267 612.44 62.8667 610.146Z" fill="#574F4D"/>
<path d="M144.76 671.84C144.707 669.6 143.387 667.773 142.28 665.96C139.627 673.147 139.893 680.947 141.267 688.373C145.8 684.107 145.253 677.493 144.76 671.84Z" fill="#362105"/>
<path d="M134.4 666.347C133.96 671.827 133.68 677.333 133.693 682.853C134.04 691.133 133.613 699.44 134.32 707.707C134.8 710.587 135.453 713.44 136.12 716.307C135.987 699.64 135.68 682.947 134.4 666.347Z" fill="#AB7353"/>
<path d="M170.893 880.027C170.653 871.814 171.48 863.267 168.733 855.4C168.453 868.507 170.853 881.894 166.733 894.68C172.173 891.827 170.507 885.04 170.893 880.027Z" fill="#898A85"/>
<path d="M152.84 859.094C150.947 858.827 149.053 858.614 147.147 858.44C143.307 858.267 139.453 858.494 135.6 858.52C135.667 870.147 134.32 881.974 136.467 893.454C145.68 896.947 156.133 896 165.68 894.427C156.6 892.467 147.093 895.027 138.093 892.027C135.587 881.947 135.787 871.4 138.52 861.387C143.307 860.694 148.093 859.96 152.84 859.094Z" fill="#898A85"/>
<path d="M127.653 938.92C126.067 936.88 124.467 934.867 122.813 932.894C123.387 934.707 123.88 936.56 124.373 938.414C120.8 938.76 117.227 939.16 113.653 939.574C118.333 939.934 123.04 939.707 127.653 938.92Z" fill="#898A85"/>
<path d="M174.187 997.36C165.2 999.507 155.907 999.094 146.813 1000.43C155.827 1001.37 164.893 1000.91 173.867 999.787C173.96 1006.27 174.347 1012.76 174.92 1019.23C175.613 1011.96 176.693 1004.4 174.187 997.36Z" fill="#898A85"/>
<path d="M28.8 681.4C27.5467 677.826 24.72 675.146 22.3867 672.28C17.1867 672.16 12.8933 675.706 11.64 680.653C8.57332 685.866 16.04 690.533 13.08 695.893C7.90666 708.04 0.146669 719.667 -0.306665 733.28C-1.17333 744.027 2.58667 755.946 11.88 762.16C21.0267 767.56 36.7333 763.066 37.4133 751.08C37.56 744.946 39.28 737.586 35 732.466C34.5333 732.48 33.5867 732.493 33.1067 732.506C31.7867 735.733 32.0267 739.32 30.9067 742.613C30.0533 746.773 26.7733 749.72 24.6267 753.213C27.6133 752.866 30.1867 751.306 32.7067 749.813C31.4667 755.36 26.3333 759.106 20.7067 759C13.9067 758.613 9.54667 752.12 7.28001 746.347C5.65334 739.467 6.29332 732.253 6.97332 725.293C7.94666 713.773 17.48 705.32 18.9067 693.92C20.44 693.293 21.9733 692.707 23.4667 692.027C25.72 688.813 28.5733 685.466 28.8 681.4ZM22.8133 678.84C22.7467 681.146 22.6267 683.453 22.4533 685.773C20.68 685.867 18.8933 685.96 17.1067 686.053C17.36 683.986 17.2 681.826 18 679.88C19.3067 678.733 21.24 679.186 22.8133 678.84Z" fill="#120E09"/>
<path d="M22.8133 678.84C21.24 679.187 19.3067 678.733 18 679.88C17.2 681.827 17.36 683.986 17.1067 686.053C18.8933 685.96 20.68 685.867 22.4533 685.773C22.6267 683.453 22.7467 681.147 22.8133 678.84Z" fill="#F6EEEC"/>
<path d="M150.773 720.44C145.613 720.507 140.427 719.88 135.613 717.947C135.907 720.68 138.387 721.907 140.733 722.653C143.933 722.853 147.133 722.72 150.32 722.72C150.427 722.147 150.653 721.013 150.773 720.44Z" fill="#9E6B4F"/>
<path d="M163.48 729.094C157.84 727.414 151.84 728.307 146.027 728.04C140.973 728.174 135.307 727.187 130.84 730.147C126.307 734.307 126.027 741 125.867 746.747C128.187 741.854 129.693 736.547 132.707 732.027C142.533 728.92 153.107 730.454 163.253 730.667C165.973 737.054 167.893 743.76 170.947 750.027C170.653 742.68 169.72 733.907 163.48 729.094Z" fill="#835B44"/>
<path d="M163.253 730.666C153.107 730.453 142.533 728.92 132.707 732.026C129.693 736.546 128.187 741.853 125.867 746.746C123.747 751.426 123.333 756.64 123.387 761.72C129.853 760.853 136.387 760.24 142.92 760.413C138.133 765.64 130.76 765.986 124.24 767.093C125.387 781.16 122.693 795.24 123.493 809.333C124.16 820.56 122.84 832.32 127.28 842.946C129.16 847.72 134.813 848.893 139.347 849.44C151.267 850.48 163.253 848.693 174.853 845.96C175.387 845.853 176.453 845.613 176.987 845.506C177 844.92 177.027 843.733 177.053 843.146C177.253 834.08 178.387 825.026 177.773 815.96C177.453 805.533 174.853 795.2 176.027 784.746C176.067 783.773 176.16 781.826 176.2 780.853L175.667 781.96C175.387 782.56 174.84 783.733 174.56 784.333C174.307 782.453 174.067 780.586 173.853 778.72C165.52 780.973 157.013 783.48 148.267 782.906C150.627 781.56 153 780.253 155.467 779.146C154.733 778.893 153.253 778.386 152.52 778.146C158.693 775.226 165.467 774.12 172.147 773.04C171.16 766.706 170.133 760.226 171.613 753.88C172 752.533 171.507 751.213 170.947 750.026C167.893 743.76 165.973 737.053 163.253 730.666ZM174.333 811.333C171.133 813.466 167.387 814.4 163.573 814.706C163.587 813.786 163.6 811.933 163.6 811.013C167.187 811.04 170.76 811.08 174.333 811.333ZM141.08 821.373C141.027 822.733 140.987 824.12 140.96 825.493C136.013 825.586 130.093 826.413 126.787 821.84C131.533 821.293 136.307 821.253 141.08 821.373Z" fill="#874D29"/>
<path d="M41.8667 746.96C37.4533 747.093 43.8667 750.973 41.8667 746.96Z" fill="#807973"/>
<path d="M171.613 753.88C170.133 760.227 171.16 766.707 172.147 773.04C165.467 774.12 158.693 775.227 152.52 778.147C153.253 778.387 154.733 778.893 155.467 779.147C161.547 778.093 167.52 776.587 173.467 775.027C173.56 775.947 173.76 777.8 173.853 778.72C174.067 780.587 174.307 782.453 174.56 784.333C174.84 783.733 175.387 782.56 175.667 781.96C174.987 772.533 173.853 763.08 171.613 753.88Z" fill="#865B3E"/>
<path d="M142.92 760.413C136.387 760.24 129.853 760.853 123.387 761.72C122.187 762.64 122.947 763.866 123.4 764.96C123.613 765.493 124.027 766.56 124.24 767.093C130.76 765.987 138.133 765.64 142.92 760.413Z" fill="#421208"/>
<path d="M124.24 767.093C124.027 766.56 123.613 765.493 123.4 764.96C121.987 771.213 122.133 777.653 121.853 784.027C121.24 802.227 120.32 820.64 123.173 838.707C123.693 844.16 127.187 849.427 132.72 850.773C142.04 852.947 151.787 852.027 161.24 851.32C165.973 850.453 171.973 850.52 174.853 845.96C163.253 848.693 151.267 850.48 139.347 849.44C134.813 848.893 129.16 847.72 127.28 842.947C122.84 832.32 124.16 820.56 123.493 809.333C122.693 795.24 125.387 781.16 124.24 767.093Z" fill="#8D5E44"/>
<path d="M173.467 775.027C167.52 776.587 161.547 778.093 155.467 779.147C153 780.253 150.627 781.56 148.267 782.907C157.013 783.48 165.52 780.973 173.853 778.72C173.76 777.8 173.56 775.947 173.467 775.027Z" fill="#1D0000"/>
<path d="M176.027 784.747C174.853 795.2 177.453 805.533 177.773 815.96C178.387 825.027 177.253 834.08 177.053 843.147C180.36 838.8 179.213 833.067 179.44 827.987C179.693 813.507 178.813 798.973 176.027 784.747Z" fill="#966952"/>
<path d="M174.333 811.333C170.76 811.08 167.187 811.04 163.6 811.013C163.6 811.933 163.587 813.787 163.573 814.707C167.387 814.4 171.133 813.467 174.333 811.333Z" fill="#2C0600"/>
<path d="M141.08 821.373C136.307 821.253 131.533 821.293 126.787 821.84C130.093 826.413 136.013 825.587 140.96 825.493C140.987 824.12 141.027 822.733 141.08 821.373Z" fill="#6A3314"/>
<path d="M24.2 854.173C22.2133 854.747 22.32 859.813 24.2267 860.467C25.3867 858.68 25.4 855.92 24.2 854.173Z" fill="#4A423F"/>
<path d="M168.733 855.4C161.547 856.413 154.2 856.52 147.147 858.44C149.053 858.613 150.947 858.827 152.84 859.093C148.093 859.96 143.307 860.693 138.52 861.387C135.787 871.4 135.587 881.947 138.093 892.027C147.093 895.027 156.6 892.467 165.68 894.427L166.733 894.68C170.853 881.893 168.453 868.507 168.733 855.4Z" fill="#646560"/>
<path d="M173.373 858.293C172.04 866.413 172.173 874.72 173.387 882.854C174.067 874.68 174.333 866.44 173.373 858.293Z" fill="#332F2E"/>
<path d="M23.4133 875.8C23.3867 872.106 23.1067 868.426 22.48 864.8C22.1333 868.466 22 872.16 21.96 875.853L23.4133 875.8Z" fill="#4C4540"/>
<path d="M21.4 882.493C20.48 889.186 20.8267 895.947 20.9733 902.68C21.2 911.12 20.56 919.546 20.6667 927.986L22.0133 928.066C21.3333 912.866 22.32 897.653 21.4 882.493Z" fill="#4D4447"/>
<path d="M164.68 900.587C156.68 901.24 148.613 901.48 140.613 900.654C140.08 913.734 142.107 926.734 141.84 939.8C136.973 942.6 131.8 945.2 126.067 945.387C117.027 946.56 107.52 944.254 98.7867 947.4C89.9333 952.28 89.1333 965.147 94.2533 973.054C97.7067 978.174 104.187 979.694 109.973 980.147C120.547 980.907 131.16 980.147 141.747 980.227C141.88 985.04 142.147 989.867 142.533 994.667C151 994.4 159.533 994.027 167.88 992.547C168.96 989.36 168.68 985.947 168.76 982.667C168.56 967.067 169.333 951.427 167.787 935.867C167.24 924.067 167.04 912.2 164.68 900.587Z" fill="#343031"/>
<path d="M114.027 923.933C106.667 918.8 97.6267 916.427 88.68 917.067C75.7467 916.947 62.2267 921.747 54.0933 932.2C41.8 946.44 40.5467 967.48 46.6933 984.653C53.0667 997.227 65.28 1007.27 79.4267 1009.41C90.52 1010.56 102.133 1007.8 111.107 1001.04C116.333 996.987 121.92 992.547 123.827 985.907C113.36 985.707 101.813 986.133 92.8667 979.8C82.56 971.547 82.8133 953.973 93.2133 945.867C98.7467 940.733 106.507 940.08 113.653 939.573C117.227 939.16 120.8 938.76 124.373 938.413C123.88 936.56 123.387 934.707 122.813 932.893C121.48 928.707 117.36 926.387 114.027 923.933Z" fill="#484441"/>
<path d="M173.867 999.787C164.893 1000.91 155.827 1001.37 146.813 1000.43C144.92 1000.29 143.027 1000.24 141.133 1000.19C139.347 1008.28 138.56 1016.72 139.76 1024.95C140.2 1027.57 143.48 1027.69 145.573 1027.57C151.64 1027.17 157.72 1027.11 163.787 1027.41C167.227 1027.44 170.653 1026.96 174.08 1026.67C174.48 1024.2 175.053 1021.72 174.92 1019.23C174.347 1012.76 173.96 1006.27 173.867 999.787Z" fill="#62635E"/>
<path d="M156.293 1034.12C150.76 1034.84 145.36 1032.99 139.867 1032.85C136.093 1035.87 134.92 1040.91 134.067 1045.44C132.947 1052.49 131.48 1059.53 131.307 1066.69C136.453 1056.72 134.627 1044.65 140.773 1035.09C146.413 1036.19 152.213 1037.15 157.933 1036.07C164 1034.95 170.173 1034.37 176.347 1034.75C180.773 1046.96 182.8 1059.8 185.68 1072.43C185.84 1071.24 186.147 1068.89 186.307 1067.72C185.253 1056.63 183.32 1045.44 178.84 1035.19C178.2 1033.16 175.853 1032.93 174.08 1032.88C168.12 1032.47 162.2 1033.45 156.293 1034.12Z" fill="#80563C"/>
<path d="M176.347 1034.75C170.173 1034.37 164 1034.95 157.933 1036.07C152.213 1037.15 146.413 1036.19 140.773 1035.09C134.627 1044.65 136.453 1056.72 131.307 1066.69C129.573 1070.72 129.293 1075.19 129.533 1079.52C130.267 1086.67 130.027 1093.87 129.52 1101.03C128.827 1110.69 130.027 1120.44 128.347 1130.04C128.973 1138.4 137 1144.61 144.613 1146.87C154.933 1149.44 166.013 1150.55 176.413 1147.85C179.64 1146.75 183.893 1145.61 184.773 1141.81C186.68 1134.56 191.107 1127.72 190.2 1119.96C188.733 1106.16 186.84 1092.37 186.533 1078.48C178.947 1082.89 170.053 1084.96 161.307 1083.76C165.293 1080.33 170.72 1080.4 175.52 1079C178.987 1078.04 182.32 1076.71 185.72 1075.59C185.907 1076 186.293 1076.81 186.48 1077.23L186.88 1078.13C187.507 1074.64 187.453 1071.08 186.307 1067.72C186.147 1068.89 185.84 1071.24 185.68 1072.43C182.8 1059.8 180.773 1046.96 176.347 1034.75ZM151.787 1060.16C147.453 1065.35 139.827 1063.19 134.347 1061.23C139.8 1058.57 146 1059.65 151.787 1060.16ZM163.573 1112.37C157.733 1119.33 147.04 1119.51 138.893 1117.19C141.88 1115.55 145.24 1114.99 148.613 1114.93C153.707 1114.77 158.6 1113.31 163.573 1112.37Z" fill="#804925"/>
<path d="M151.787 1060.16C146 1059.65 139.8 1058.57 134.347 1061.23C139.827 1063.19 147.453 1065.35 151.787 1060.16Z" fill="#3E1201"/>
<path d="M185.72 1075.59C182.32 1076.71 178.987 1078.04 175.52 1079C170.72 1080.4 165.293 1080.33 161.307 1083.76C170.053 1084.96 178.947 1082.89 186.533 1078.48L186.48 1077.23C186.293 1076.81 185.907 1076 185.72 1075.59Z" fill="#1A0000"/>
<path d="M186.88 1078.13L186.48 1077.23L186.533 1078.48C186.84 1092.37 188.733 1106.16 190.2 1119.96C191.107 1127.72 186.68 1134.56 184.773 1141.81C190.427 1138.49 192.093 1131.44 192.387 1125.36C192.493 1114.72 190.613 1104.19 189.587 1093.64C188.72 1088.47 189.093 1082.99 186.88 1078.13Z" fill="#80573B"/>
<path d="M129.52 1101.03C130.027 1093.87 130.267 1086.67 129.533 1079.52C127.853 1089.37 127.347 1099.37 127.16 1109.36C127.053 1116.25 126.613 1123.27 128.347 1130.04C130.027 1120.44 128.827 1110.69 129.52 1101.03Z" fill="#865C45"/>
<path d="M163.573 1112.37C158.6 1113.31 153.707 1114.77 148.613 1114.93C145.24 1114.99 141.88 1115.55 138.893 1117.19C147.04 1119.51 157.733 1119.33 163.573 1112.37Z" fill="#361100"/>
</g>
<defs>
<clipPath id="clip0_58_252">
<rect width="206" height="1160" fill="white" transform="matrix(-1 0 0 1 206 0)"/>
</clipPath>
</defs>
</svg>
