<svg width="159" height="847" viewBox="0 0 159 847" fill="none" xmlns="http://www.w3.org/2000/svg">
<g clip-path="url(#clip0_58_2)">
<path d="M40.6455 187.073C38.9255 187.006 37.2055 186.953 35.4722 186.913C35.2988 189.82 36.0855 192.553 37.5922 195.033C38.7655 194.526 39.9388 194.033 41.1122 193.553C40.9788 191.393 40.8055 189.233 40.6455 187.073Z" fill="#F4F0F1"/>
<path d="M92.6855 597.673C88.7522 590.54 82.5122 584.966 75.9789 580.246C75.4455 580.073 74.3522 579.713 73.8189 579.526C79.2322 585.233 86.3389 589.38 90.4855 596.233C93.5789 600.993 95.1789 606.5 96.8055 611.886C91.9922 612.206 87.1522 612.62 82.4189 613.646C87.9122 613.5 93.4189 612.86 98.8989 613.673C96.6989 608.393 95.6455 602.62 92.6855 597.673Z" fill="#F4F0F1"/>
<path d="M27.2854 612.633C28.9921 604.06 33.8855 596.673 36.9255 588.58C26.7121 602.793 22.5921 620.966 23.5255 638.3C24.4988 655.033 30.4455 671.966 42.4721 683.966C47.4988 687.993 54.2988 689.153 60.5788 688.566C60.8988 681.633 63.4988 675.06 64.0188 668.18C63.9921 667.34 63.9255 665.646 63.8855 664.806C62.2855 672.686 61.4721 680.833 58.0988 688.246C53.0988 687.286 47.6988 686.42 43.7921 682.846C38.6988 678.313 34.7521 672.58 31.7121 666.5C24.2321 649.713 22.7254 630.433 27.2854 612.633Z" fill="#F4F0F1"/>
<path d="M76.7788 617.646C72.0455 617.206 66.4322 617.046 63.0588 621.06C57.3388 627.3 58.1655 636.78 60.9388 644.18C62.1521 648.3 64.8988 651.66 68.0188 654.5C71.1522 642.26 73.0188 629.726 76.7788 617.646Z" fill="#535353"/>
<path d="M90.8455 4.99268C86.5121 -0.0339823 78.8588 -1.24731 72.8855 1.27269C69.2188 2.72603 67.4055 7.79268 63.0055 7.40601C55.4588 7.33935 46.3655 5.72602 40.5655 11.8327C33.4455 17.3127 36.7121 28.7127 43.0455 33.5527C44.8721 35.0993 46.8588 36.4593 48.9655 37.606C50.8588 38.5527 52.8055 39.4327 54.7255 40.3127C55.0188 55.1793 54.9788 70.0593 54.9521 84.9393C55.2588 95.1393 56.0988 105.353 55.3921 115.566C56.5388 148.019 56.2188 180.486 56.2321 212.953C54.8721 225.166 56.4455 237.499 54.9388 249.713C55.2588 295.939 54.6722 342.219 50.7788 388.313C50.2588 417.046 45.9522 445.513 45.2322 474.246C48.8455 471.219 47.1255 466.193 47.6321 462.153C47.4721 466.833 49.7255 473.366 44.5655 475.979C43.2722 496.273 41.9522 516.606 40.2322 536.873C40.4055 547.819 39.4988 558.726 38.8988 569.646C25.3388 573.126 14.8455 583.793 8.84547 596.099C-3.43453 620.393 -2.31452 651.126 12.3921 674.126C20.8055 685.753 34.6988 693.699 49.2055 693.686C52.2988 694.353 56.3388 693.793 58.6855 695.979C58.5121 701.513 57.0721 706.939 55.5655 712.259C52.1655 715.873 46.8721 718.353 46.2055 723.859C43.4455 730.886 47.5388 738.379 52.9521 742.806C65.5921 748.566 79.8455 748.446 93.1521 751.873C91.9788 770.619 87.7121 788.979 85.9521 807.659C86.1521 816.446 86.9521 825.753 91.9655 833.286C97.9388 840.806 107.299 844.553 116.512 846.206C127.219 847.913 138.792 844.206 146.072 836.073C154.832 827.739 157.725 815.153 157.992 803.459C158.672 796.246 159.285 789.019 158.859 781.766C158.365 785.646 157.645 789.486 156.992 793.353C156.539 789.433 156.059 785.526 155.499 781.633C154.699 788.113 154.339 794.633 153.712 801.139C152.805 809.473 151.259 817.899 147.365 825.406C141.619 837.326 126.805 844.046 114.072 840.366C107.232 838.406 100.045 835.419 95.8455 829.366C91.8988 823.819 91.7388 816.766 91.6988 810.233C91.1788 790.739 97.5388 771.993 98.6721 752.619C107.179 752.979 117.045 754.753 124.192 748.886C129.365 744.779 129.712 737.593 129.445 731.539C129.245 726.206 127.859 719.779 122.539 717.299C115.392 713.806 107.339 713.046 99.7655 710.926C99.9521 699.726 97.4321 688.446 99.4455 677.326C103.645 661.886 110.272 646.753 110.765 630.553C111.232 625.073 107.752 620.673 104.979 616.353C102.779 613.046 102.605 608.979 102.139 605.179C100.325 600.419 98.8721 595.459 99.1121 590.313C99.4988 576.166 98.3655 562.046 98.6855 547.913C98.3522 535.033 97.0988 522.126 98.1921 509.259C98.9921 509.606 100.592 510.299 101.392 510.646C110.619 511.713 119.859 510.446 129.045 509.526C130.872 522.366 133.152 535.193 133.312 548.206C133.832 550.659 134.285 553.139 134.592 555.646C135.765 567.246 136.565 578.859 136.805 590.513L138.139 591.206L138.272 589.886C138.499 585.806 138.525 581.726 138.259 577.673C137.805 575.713 136.019 571.739 138.819 570.993C140.419 573.046 138.965 575.859 138.619 578.139C139.952 582.219 141.045 586.393 141.752 590.646C141.085 570.593 139.005 550.646 137.219 530.686C136.232 523.673 134.952 516.713 133.819 509.739C133.525 507.593 133.152 505.193 134.672 503.419C142.432 492.419 140.832 477.326 135.419 465.673C134.325 462.606 131.205 461.606 128.445 460.553C127.952 434.393 127.365 408.206 125.259 382.126C124.619 377.006 123.619 371.766 124.485 366.633C128.939 362.393 129.179 356.006 128.579 350.246C128.125 346.299 124.365 344.366 122.019 341.633C119.739 331.326 120.139 320.659 119.619 310.166C119.059 288.793 117.965 267.459 115.845 246.193C125.325 241.673 122.832 226.753 113.899 222.939C112.525 209.766 112.979 196.486 111.219 183.339C110.952 167.499 108.912 151.753 108.672 135.913C109.912 132.953 113.619 131.179 113.205 127.539C113.965 120.806 110.619 114.246 104.565 111.193C103.112 101.979 101.845 92.726 100.885 83.4594C98.0721 66.6994 99.2055 49.286 93.5255 33.046C95.1255 29.9527 97.0321 26.8327 97.4188 23.326C96.5388 16.9127 95.8321 9.68602 90.8455 4.99268ZM83.4721 6.72602C84.3521 8.33936 85.2321 9.95269 86.1521 11.5394C87.6321 12.3927 89.7521 12.7927 90.2588 14.6727C91.6988 20.0594 91.5655 26.7394 86.9921 30.6594C87.4855 24.9927 91.2588 18.1394 86.4321 13.3527C86.6588 19.486 85.9388 25.6194 83.8455 31.4194C81.2188 31.7927 78.4721 32.8993 75.8188 32.0727C71.8188 30.3793 68.8721 26.4327 68.5521 22.0594C67.3788 16.6194 71.8588 12.5127 74.3921 8.24602C76.1388 4.79269 80.4855 6.67269 83.4721 6.72602ZM63.1655 12.8994C63.1521 13.5527 63.1388 14.8727 63.1388 15.5394C58.3255 15.766 52.9655 14.7394 48.6588 17.4327C46.2321 23.286 50.1521 29.6993 55.1388 32.7393C59.3121 34.5393 64.0321 33.846 68.4588 34.1127C68.4321 34.7793 68.3921 36.126 68.3788 36.7927C59.6455 38.5794 51.1655 34.1394 45.2055 28.0594C41.6855 24.4727 41.8722 17.566 45.9788 14.526C51.3388 12.0594 57.4455 13.0594 63.1655 12.8994ZM62.2321 21.126C62.6988 23.846 63.3788 26.526 64.0721 29.1927C59.1788 28.166 53.6455 26.3793 51.9655 21.0727C55.3921 20.726 58.8188 20.886 62.2321 21.126ZM88.3255 36.326C92.7121 45.206 92.7521 55.246 93.4588 64.8993C94.7121 80.566 97.3388 96.0727 99.1388 111.673C94.2188 112.526 89.2455 113.019 84.2588 113.233C84.3655 106.806 84.2188 100.379 83.3788 94.006C82.0988 75.486 80.3121 57.006 79.3655 38.4594C82.3521 37.7394 85.3388 37.0327 88.3255 36.326ZM73.3788 41.7527C76.7521 65.8194 77.7655 90.1394 79.2855 114.366C75.1788 117.406 70.9521 121.766 72.3255 127.379C72.5788 132.766 78.1388 134.593 82.1121 136.793C83.1121 149.139 84.1521 161.473 84.5655 173.846C85.7255 190.193 87.4321 206.526 88.0988 222.913C81.9521 224.113 78.0855 230.766 78.8455 236.713C79.3388 241.873 84.9921 243.593 88.8055 245.886C89.5255 258.886 88.5921 271.953 90.0055 284.913C89.9788 296.499 91.0988 308.033 90.9521 319.619C91.6055 327.859 92.5255 336.086 92.3655 344.366C86.7521 345.433 83.6588 351.606 84.2188 356.939C83.9121 362.593 90.0055 364.966 94.0321 367.393C94.1388 367.886 94.3521 368.886 94.4588 369.379C93.4721 383.886 95.3655 398.393 94.9255 412.913C94.5655 429.179 96.0455 445.393 96.2721 461.633C85.2855 467.046 84.2988 481.393 86.4188 492.019C86.8721 497.299 91.2855 501.073 92.1121 506.153C91.7655 522.673 94.3121 539.059 93.6055 555.593C94.5655 566.673 93.0321 577.793 94.4855 588.833C90.6455 584.313 86.5788 579.926 81.5255 576.766C75.6855 572.713 68.5788 571.299 62.2055 568.326C56.5388 565.646 50.1788 566.299 44.1255 566.846C44.3255 553.326 45.1521 539.819 45.9921 526.326C45.5655 529.779 44.1922 533.019 43.1122 536.313C40.6722 525.339 44.6055 514.499 43.9521 503.526C44.0188 496.513 44.5788 489.433 46.6188 482.699C47.8321 489.166 46.4588 495.659 45.9388 502.113C45.4988 506.779 46.3521 511.419 46.7655 516.046C47.6055 503.473 48.2855 490.873 49.5655 478.339C51.0722 447.526 54.7655 416.873 55.5255 386.033C54.0588 387.326 52.6855 389.113 52.9388 391.219C52.8721 396.233 53.2721 401.259 52.9521 406.286C52.7255 399.779 52.2188 393.193 53.0321 386.713C54.9388 380.166 53.5255 373.273 54.5388 366.633C54.5121 364.966 56.5121 364.886 57.5788 364.179C57.1521 351.046 59.3255 338.033 58.9655 324.913C58.7921 309.353 60.1655 293.819 60.2455 278.259C60.2855 260.019 59.7521 241.739 61.4988 223.553C59.8721 196.499 61.5921 169.393 60.5521 142.313C60.0455 118.819 60.3788 95.286 60.2055 71.7793C56.6188 62.8193 59.1655 52.9394 55.6588 43.926C56.7521 44.4994 57.8455 45.0727 58.9255 45.6594C59.3121 44.646 59.6855 43.6327 60.0588 42.6194C64.5255 43.4994 69.0055 42.646 73.3788 41.7527ZM58.8988 88.806C58.5521 117.339 59.0988 145.859 58.9255 174.379L57.5921 174.313C57.3788 145.806 58.0055 117.313 57.4721 88.8193L58.8988 88.806ZM105.072 118.406C108.259 121.713 106.685 126.753 106.845 130.859C98.6321 131.553 90.0988 132.419 82.0855 129.926C80.0855 129.126 77.1388 127.753 77.8855 125.113C78.2055 120.033 84.0988 118.713 88.2055 118.299C93.7655 117.926 99.6855 116.286 105.072 118.406ZM103.579 136.753C103.485 146.419 105.179 156.059 104.885 165.699C106.005 172.513 105.259 179.446 106.005 186.299C106.779 193.299 107.299 200.353 107.232 207.406C108.405 212.793 108.392 218.326 108.485 223.819C103.499 223.793 98.5121 223.699 93.5255 223.446C91.6988 212.913 92.8321 202.166 91.3921 191.606C89.6855 173.099 88.7921 154.526 87.3388 136.006C92.7655 135.966 98.1788 136.193 103.579 136.753ZM58.2721 175.313C59.7121 190.473 57.9388 205.699 58.9655 220.886C58.7388 230.459 59.2988 240.113 58.1255 249.646C57.0855 233.433 57.7388 217.166 57.8455 200.939C57.9921 192.406 56.5921 183.779 58.2721 175.313ZM111.885 229.433C117.032 229.993 116.099 236.019 116.485 239.726C107.579 241.686 98.1388 241.433 89.2188 239.713C84.2188 239.219 83.4988 231.099 88.5788 230.379C96.1921 228.886 104.165 228.513 111.885 229.433ZM109.819 246.273C112.179 256.806 112.099 267.646 113.245 278.339C113.885 287.633 113.392 296.979 114.419 306.259C114.779 318.273 115.032 330.286 116.339 342.246C110.112 342.513 103.912 342.873 97.6988 343.313C97.7255 327.606 95.1521 311.939 96.1121 296.246C95.2988 292.513 94.8588 288.713 94.8855 284.899C94.9521 272.006 94.9388 259.126 94.9121 246.233C99.2188 246.206 103.525 246.353 107.805 246.766C108.312 246.646 109.312 246.393 109.819 246.273ZM57.3655 280.379C58.0055 298.326 57.4321 316.326 57.5388 334.299L56.3121 334.259C56.0721 318.673 56.3388 303.086 56.4188 287.499C56.4855 285.086 56.9788 282.739 57.3655 280.379ZM122.859 349.033C123.499 352.779 123.819 356.579 123.779 360.379C119.285 362.179 114.419 362.353 109.659 361.859C104.099 361.299 98.3121 362.006 92.9388 360.246C89.9655 359.219 89.2321 355.579 90.9788 353.166C92.3655 349.966 96.1521 349.793 99.1121 349.313C106.992 348.579 115.045 346.873 122.859 349.033ZM118.739 366.913C118.845 372.273 119.579 377.606 119.565 382.966C120.285 387.006 120.939 391.126 120.645 395.259C123.139 416.953 122.912 438.886 123.179 460.713C115.992 460.566 108.632 459.273 101.619 461.446C101.752 450.606 101.539 439.793 100.419 429.019C100.339 408.486 99.4588 387.953 100.099 367.419C106.312 367.579 112.552 367.553 118.739 366.913ZM97.4721 366.539C97.1388 380.713 97.8188 394.913 96.9655 409.086C96.0721 394.899 96.6988 380.673 96.3522 366.473L97.4721 366.539ZM48.9788 440.766C49.5655 447.513 49.4855 454.299 48.9921 461.046C48.2455 454.313 48.1788 447.499 48.9788 440.766ZM127.952 467.166C129.565 467.299 130.272 469.099 131.032 470.286C135.632 479.539 136.112 491.406 130.272 500.219C126.752 504.979 120.285 505.006 114.939 505.059C108.885 504.873 101.752 506.246 96.9521 501.566C92.5521 498.179 91.8721 492.366 91.1788 487.259C90.3921 480.806 91.1921 473.419 95.9788 468.593C99.8321 465.033 105.459 466.406 110.152 466.846C116.059 467.819 122.032 466.646 127.952 467.166ZM42.3921 536.406C43.1655 545.473 42.8721 554.593 43.0855 563.686L41.6721 563.753C41.7255 554.633 41.0455 545.459 42.3921 536.406ZM47.2455 572.633C42.3388 576.313 36.9921 579.553 33.0321 584.339C23.5655 594.859 20.4455 609.206 18.1655 622.766L17.8855 621.819C17.7388 629.019 17.4055 636.233 17.8188 643.433C18.8988 653.753 22.1921 663.606 26.6721 672.926C29.0188 676.966 31.7255 680.793 34.1122 684.819C18.7922 678.206 9.6988 661.979 7.4588 645.993C6.1788 634.473 5.3388 622.393 9.16546 611.246C9.52546 603.259 14.4721 596.513 19.0055 590.286C25.7388 581.166 35.7521 573.899 47.2455 572.633ZM75.9788 580.246C82.5121 584.966 88.7522 590.539 92.6855 597.673C95.6455 602.619 96.6988 608.393 98.8988 613.673C93.4188 612.859 87.9121 613.499 82.4188 613.646C80.5655 614.006 77.8988 613.726 77.0455 611.793C73.7388 611.713 70.4321 611.659 67.1121 611.606C65.7655 613.473 63.2988 614.166 61.5655 615.659C56.6988 618.886 54.5388 624.753 53.7255 630.299C52.7388 641.353 56.8988 653.073 66.0588 659.766C65.9121 662.659 65.8055 665.713 64.0188 668.179C63.4988 675.059 60.8988 681.633 60.5788 688.566C54.2988 689.153 47.4988 687.993 42.4721 683.966C30.4455 671.966 24.4988 655.033 23.5255 638.299C22.5922 620.966 26.7121 602.793 36.9255 588.579C41.5521 580.446 51.4188 576.739 60.2855 575.619C65.6455 575.593 72.3921 575.619 75.9788 580.246ZM76.7788 617.646C73.0188 629.726 71.1521 642.259 68.0188 654.499C64.8988 651.659 62.1521 648.299 60.9388 644.179C58.1655 636.779 57.3388 627.299 63.0588 621.059C66.4321 617.046 72.0455 617.206 76.7788 617.646ZM98.4988 619.993C102.179 622.046 106.312 625.539 105.765 630.219C105.912 637.886 102.912 645.099 101.139 652.446C96.4588 671.366 88.1788 689.073 81.2721 707.219C80.5521 708.713 80.2188 710.526 78.9255 711.699C73.4721 714.513 67.1788 714.313 61.2188 714.473C65.1521 690.086 71.2988 666.153 76.0055 641.926C77.7788 635.606 78.9788 629.113 81.0188 622.886C85.5655 618.673 92.7921 618.419 98.4988 619.993ZM94.0321 690.966C94.5255 696.433 94.8055 701.953 94.6321 707.459C93.1255 709.766 89.3388 708.539 86.8855 709.153C88.5921 702.846 91.5388 696.966 94.0321 690.966ZM93.6455 715.353C101.832 717.646 110.405 718.446 118.379 721.433C124.112 723.379 124.659 730.499 124.179 735.606C124.072 741.766 118.779 748.006 112.352 747.726C95.8055 747.406 79.4988 744.126 63.3521 740.686C59.4588 739.739 55.1655 738.433 52.8055 734.939C50.4055 730.686 51.6055 725.713 52.4055 721.219C61.1388 720.139 70.1121 720.486 78.5788 717.793C83.4721 716.433 88.4588 713.673 93.6455 715.353Z" fill="#110D0A"/>
<path d="M83.4721 6.72632C80.4854 6.67299 76.1388 4.79299 74.3921 8.24632C71.8588 12.513 67.3788 16.6197 68.5521 22.0597C68.8721 26.433 71.8188 30.3796 75.8188 32.073C78.4721 32.8996 81.2188 31.793 83.8454 31.4197C85.9388 25.6197 86.6588 19.4863 86.4321 13.353C91.2588 18.1397 87.4854 24.993 86.9921 30.6597C91.5654 26.7397 91.6988 20.0597 90.2588 14.673C89.7521 12.793 87.6321 12.393 86.1521 11.5397C85.2321 9.95299 84.3521 8.33965 83.4721 6.72632Z" fill="#585455"/>
<path d="M58.2721 175.313C56.5921 183.78 57.9921 192.406 57.8455 200.94C57.7388 217.166 57.0854 233.433 58.1254 249.646C59.2988 240.113 58.7388 230.46 58.9655 220.886C57.9388 205.7 59.7121 190.473 58.2721 175.313Z" fill="#585455"/>
<path d="M63.1655 12.8996C57.4455 13.0596 51.3389 12.0596 45.9789 14.5262C41.8722 17.5662 41.6855 24.4729 45.2055 28.0596C51.1655 34.1396 59.6455 38.5796 68.3789 36.7929C68.3922 36.1262 68.4322 34.7796 68.4589 34.1129C64.0322 33.8462 59.3122 34.5396 55.1389 32.7396C50.1522 29.6996 46.2322 23.2862 48.6589 17.4329C52.9655 14.7396 58.3255 15.7662 63.1389 15.5396C63.1389 14.8729 63.1522 13.5529 63.1655 12.8996Z" fill="#383835"/>
<path d="M62.2322 21.1262C58.8189 20.8862 55.3922 20.7262 51.9655 21.0729C53.6455 26.3795 59.1789 28.1662 64.0722 29.1929C63.3789 26.5262 62.6989 23.8462 62.2322 21.1262Z" fill="#FFFFFB"/>
<path d="M94.0322 690.966C91.5389 696.966 88.5922 702.846 86.8855 709.153C89.3389 708.54 93.1255 709.766 94.6322 707.46C94.8055 701.953 94.5255 696.433 94.0322 690.966Z" fill="#FFFFFB"/>
<path d="M48.9655 37.6061C46.8588 36.4594 44.8721 35.0994 43.0455 33.5527C42.2188 63.0194 29.0321 90.3661 26.4188 119.606C26.0188 129.353 25.6055 139.126 26.2321 148.886C26.9921 160.459 31.7388 171.246 33.5121 182.619C34.8188 181.726 36.1788 180.913 37.5121 180.073C30.2855 161.819 28.1655 141.779 29.3921 122.286C30.7921 111.273 32.7921 100.313 35.6321 89.5794C39.3255 75.3527 44.0055 61.2594 45.3521 46.5528C45.7921 43.3128 46.3121 39.8194 48.9655 37.6061Z" fill="#443D33"/>
<path d="M88.3255 36.3262C85.3388 37.0328 82.3521 37.7395 79.3655 38.4595C80.3121 57.0062 82.0988 75.4862 83.3788 94.0062C84.2188 100.38 84.3655 106.806 84.2588 113.233C89.2455 113.019 94.2188 112.526 99.1388 111.673C97.3388 96.0729 94.7121 80.5662 93.4588 64.8995C92.7521 55.2462 92.7121 45.2062 88.3255 36.3262Z" fill="#4D4A49"/>
<path d="M60.0589 42.6196C59.6855 43.633 59.3122 44.6463 58.9255 45.6596C57.8455 45.073 56.7522 44.4996 55.6589 43.9263C59.1655 52.9396 56.6189 62.8196 60.2055 71.7796C60.2055 62.0596 60.4055 52.3263 60.0589 42.6196Z" fill="#2C2821"/>
<path d="M58.8989 88.8062L57.4722 88.8195C58.0055 117.313 57.3789 145.806 57.5922 174.313L58.9255 174.379C59.0989 145.859 58.5522 117.339 58.8989 88.8062Z" fill="#494642"/>
<path d="M105.072 118.406C99.6855 116.286 93.7655 117.926 88.2055 118.299C84.0988 118.713 78.2055 120.033 77.8855 125.113C77.1388 127.753 80.0855 129.126 82.0855 129.926C90.0988 132.419 98.6322 131.553 106.845 130.859C106.685 126.753 108.259 121.713 105.072 118.406Z" fill="#4D4948"/>
<path d="M103.579 136.753C98.1788 136.193 92.7655 135.966 87.3388 136.006C88.7921 154.526 89.6855 173.099 91.3922 191.606C92.8322 202.166 91.6988 212.913 93.5255 223.446C98.5121 223.699 103.499 223.793 108.485 223.819C108.392 218.326 108.405 212.793 107.232 207.406C106.979 209.353 106.699 211.313 106.365 213.273C105.045 203.899 105.219 194.406 104.165 185.006C103.445 178.566 103.619 172.059 104.885 165.699C105.179 156.059 103.485 146.419 103.579 136.753Z" fill="#4E4A49"/>
<path d="M104.886 165.699C103.619 172.059 103.445 178.566 104.165 185.006C105.219 194.406 105.046 203.899 106.366 213.273C106.699 211.313 106.979 209.353 107.232 207.406C107.299 200.353 106.779 193.299 106.006 186.299C105.259 179.446 106.006 172.513 104.886 165.699Z" fill="#625D5F"/>
<path d="M37.5121 180.073C36.1788 180.913 34.8188 181.726 33.5121 182.619C30.8854 184.299 28.2054 186.806 28.7921 190.259C28.5788 195.926 33.4054 199.766 38.1254 201.819C39.6321 211.393 44.5788 219.833 47.3521 229.006C47.6588 239.019 49.5388 250.086 43.7388 258.993C40.3788 264.726 32.5388 269.299 26.2454 265.326C22.5788 264.166 21.2188 260.513 19.9121 257.286C22.1121 258.499 24.3388 259.686 26.6188 260.753C26.1921 256.313 22.6455 252.913 22.2721 248.473C22.0855 245.139 21.8188 241.806 20.9654 238.566C20.3388 238.673 19.0988 238.859 18.4855 238.953C15.1121 246.206 14.5921 254.353 15.7255 262.179C18.7655 268.206 25.3654 272.779 32.2588 272.179C38.8054 272.779 44.4321 268.299 48.1254 263.326C51.5121 258.979 52.6988 253.499 54.4454 248.393C56.0988 233.619 49.7121 219.993 44.7521 206.553C42.1121 201.726 46.0454 197.286 47.3788 192.793C47.8321 186.686 43.3788 181.406 37.5121 180.073ZM40.6455 187.073C40.8055 189.233 40.9788 191.393 41.1121 193.553C39.9388 194.033 38.7654 194.526 37.5921 195.033C36.0854 192.553 35.2988 189.819 35.4721 186.913C37.2054 186.953 38.9255 187.006 40.6455 187.073Z" fill="#15100B"/>
<path d="M111.885 229.433C104.165 228.513 96.1921 228.886 88.5788 230.38C83.4988 231.1 84.2188 239.22 89.2188 239.713C98.1388 241.433 107.579 241.686 116.485 239.726C116.099 236.02 117.032 229.993 111.885 229.433Z" fill="#4A4A4A"/>
<path d="M122.859 349.033C115.045 346.873 106.992 348.579 99.1121 349.313C96.1521 349.793 92.3654 349.966 90.9788 353.166C89.2321 355.579 89.9654 359.219 92.9388 360.246C98.3121 362.006 104.099 361.299 109.659 361.859C114.419 362.353 119.285 362.179 123.779 360.379C123.819 356.579 123.499 352.779 122.859 349.033Z" fill="#4A4A4A"/>
<path d="M109.819 246.273C109.312 246.393 108.312 246.646 107.806 246.766C104.072 247.74 100.272 248.393 96.4589 249.006C95.9789 264.753 97.0189 280.526 96.1122 296.246C95.1522 311.94 97.7255 327.606 97.6989 343.313C103.912 342.873 110.112 342.513 116.339 342.246C115.032 330.286 114.779 318.273 114.419 306.26C113.392 296.98 113.886 287.633 113.246 278.34C112.099 267.646 112.179 256.806 109.819 246.273Z" fill="#4B4B4B"/>
<path d="M118.739 366.913C112.552 367.553 106.312 367.58 100.099 367.42C99.4588 387.953 100.339 408.486 100.419 429.02C101.539 439.793 101.752 450.606 101.619 461.446C108.632 459.273 115.992 460.566 123.179 460.713C122.912 438.886 123.139 416.953 120.645 395.26C120.312 396.113 119.645 397.833 119.312 398.7C119.019 393.446 119.219 388.206 119.565 382.966C119.579 377.606 118.845 372.273 118.739 366.913Z" fill="#4B4B4B"/>
<path d="M107.806 246.766C103.526 246.353 99.2189 246.206 94.9122 246.233C94.9389 259.126 94.9522 272.006 94.8855 284.899C94.8589 288.713 95.2989 292.513 96.1122 296.246C97.0189 280.526 95.9789 264.753 96.4589 249.006C100.272 248.393 104.072 247.739 107.806 246.766Z" fill="#5F5F5F"/>
<path d="M57.3655 280.379C56.9788 282.739 56.4855 285.086 56.4188 287.499C56.3388 303.086 56.0721 318.673 56.3121 334.259L57.5388 334.299C57.4321 316.326 58.0055 298.326 57.3655 280.379Z" fill="#47453F"/>
<path d="M75.9789 580.246C72.3922 575.619 65.6455 575.593 60.2855 575.619C51.4189 576.739 41.5522 580.446 36.9255 588.579C33.8855 596.673 28.9922 604.059 27.2855 612.633C22.7255 630.433 24.2322 649.713 31.7122 666.499C34.7522 672.579 38.6989 678.313 43.7922 682.846C47.6989 686.419 53.0989 687.286 58.0989 688.246C61.4722 680.833 62.2855 672.686 63.8855 664.806C63.9255 665.646 63.9922 667.339 64.0189 668.179C65.8055 665.713 65.9122 662.659 66.0589 659.766C56.8989 653.073 52.7389 641.353 53.7255 630.299C54.5389 624.753 56.6989 618.886 61.5655 615.659C63.2989 614.166 65.7655 613.473 67.1122 611.606C67.3789 611.206 67.8855 610.419 68.1389 610.019C70.8455 609.979 73.5522 609.993 76.2589 610.073C76.4589 610.499 76.8455 611.366 77.0455 611.793C77.8989 613.726 80.5655 614.006 82.4189 613.646C87.1522 612.619 91.9922 612.206 96.8055 611.886C95.1789 606.499 93.5789 600.993 90.4855 596.233C86.3389 589.379 79.2322 585.233 73.8189 579.526C74.3522 579.713 75.4455 580.073 75.9789 580.246Z" fill="#898A85"/>
<path d="M9.16549 611.246C5.33882 622.393 6.17882 634.473 7.45882 645.993C9.69882 661.979 18.7922 678.206 34.1122 684.819C31.7255 680.793 29.0188 676.966 26.6722 672.926C26.1522 674.326 25.6188 675.726 25.0855 677.153C15.0188 668.219 10.3655 654.939 8.32548 641.979C6.72548 631.739 8.72549 621.486 9.16549 611.246Z" fill="#898A85"/>
<path d="M98.4988 619.993C92.7921 618.42 85.5655 618.673 81.0188 622.886C78.9788 629.113 77.7788 635.606 76.0055 641.926C71.2988 666.153 65.1521 690.086 61.2188 714.473C67.1788 714.313 73.4721 714.513 78.9255 711.7C80.2188 710.526 80.5521 708.713 81.2721 707.22C88.1788 689.073 96.4588 671.366 101.139 652.446C102.912 645.1 105.912 637.886 105.765 630.22C106.312 625.54 102.179 622.046 98.4988 619.993ZM97.0455 625.42C103.765 628.833 103.592 641.126 96.0455 643.42C92.0055 644.673 88.8188 641.393 86.8855 638.273C83.1655 631.993 89.6855 621.993 97.0455 625.42Z" fill="#898A85"/>
<path d="M97.4722 366.539L96.3522 366.473C96.6988 380.673 96.0722 394.899 96.9655 409.086C97.8188 394.913 97.1388 380.713 97.4722 366.539Z" fill="#242424"/>
<path d="M57.1921 364.326C53.9921 365.3 54.7121 369.126 54.4321 371.686C54.5121 376.553 54.4588 381.433 53.7388 386.273L56.0988 386.046C55.9654 378.779 57.2454 371.593 57.1921 364.326Z" fill="#080808"/>
<path d="M112.339 728.846C109.165 728.806 106.005 728.779 102.832 728.766C101.592 732.299 101.632 736.006 103.019 739.499C105.819 739.286 108.899 739.979 111.512 738.726C113.219 735.686 112.405 732.113 112.339 728.846Z" fill="#080808"/>
<path d="M119.566 382.966C119.219 388.206 119.019 393.446 119.312 398.699C119.646 397.833 120.312 396.113 120.646 395.259C120.939 391.126 120.286 387.006 119.566 382.966Z" fill="#6B6D6A"/>
<path d="M48.9788 440.766C48.1788 447.499 48.2455 454.313 48.9921 461.046C49.4855 454.299 49.5655 447.513 48.9788 440.766Z" fill="#5F605B"/>
<path d="M47.2455 572.633C35.7521 573.899 25.7388 581.166 19.0055 590.286C14.4722 596.513 9.52549 603.26 9.16549 611.246C8.72549 621.486 6.72548 631.739 8.32548 641.979C10.3655 654.939 15.0188 668.22 25.0855 677.153C25.6188 675.726 26.1522 674.326 26.6722 672.926C22.1922 663.606 18.8988 653.753 17.8188 643.433C17.8055 647.18 17.5255 650.913 17.1655 654.646C16.0188 642.473 15.8855 630.193 16.7255 617.993C17.1388 619.246 17.5255 620.526 17.8855 621.82L18.1655 622.766C20.4455 609.206 23.5655 594.86 33.0321 584.34C36.9921 579.553 42.3388 576.313 47.2455 572.633Z" fill="#5F605B"/>
<path d="M127.952 467.166C122.032 466.646 116.059 467.819 110.152 466.846C105.459 466.406 99.8322 465.032 95.9788 468.592C91.1922 473.419 90.3922 480.806 91.1788 487.259C91.8722 492.366 92.5522 498.179 96.9522 501.566C101.752 506.246 108.885 504.872 114.939 505.059C120.285 505.006 126.752 504.979 130.272 500.219C136.112 491.406 135.632 479.539 131.032 470.286C130.272 469.099 129.566 467.299 127.952 467.166Z" fill="#404040"/>
<path d="M46.6188 482.699C44.5788 489.433 44.0188 496.513 43.9522 503.526C44.6055 514.499 40.6722 525.339 43.1122 536.313C44.1922 533.019 45.5655 529.779 45.9922 526.326C46.4588 522.913 46.6855 519.486 46.7655 516.046C46.3522 511.419 45.4989 506.779 45.9389 502.113C46.4589 495.659 47.8322 489.166 46.6188 482.699Z" fill="#251C1F"/>
<path d="M129.045 509.526C119.859 510.446 110.619 511.713 101.392 510.646C109.525 514.993 118.925 512.126 127.672 512.873C128.739 521.34 129.979 529.793 130.565 538.313C130.752 541.766 132.045 545.02 133.312 548.206C133.152 535.193 130.872 522.366 129.045 509.526Z" fill="#8E302A"/>
<path d="M101.392 510.646C100.592 510.299 98.9922 509.606 98.1922 509.259C97.0989 522.126 98.3522 535.033 98.6855 547.913C99.1655 540.539 99.3522 533.153 99.4855 525.779C101.392 541.859 100.139 558.086 101.192 574.233C100.872 584.566 102.832 594.846 102.139 605.179C102.606 608.979 102.779 613.046 104.979 616.353C107.752 620.673 111.232 625.073 110.766 630.553C110.272 646.753 103.646 661.886 99.4455 677.326C97.4322 688.446 99.9522 699.726 99.7655 710.926C107.339 713.046 115.392 713.806 122.539 717.299C127.859 719.779 129.246 726.206 129.446 731.539C129.712 737.593 129.366 744.779 124.192 748.886C117.046 754.753 107.179 752.979 98.6722 752.619C97.5389 771.993 91.1789 790.739 91.6989 810.233C91.7389 816.766 91.8989 823.819 95.8455 829.366C100.046 835.419 107.232 838.406 114.072 840.366C126.806 844.046 141.619 837.326 147.366 825.406C148.139 814.886 151.952 804.846 152.272 794.286C152.686 785.833 151.272 777.446 150.326 769.086C149.166 759.673 148.512 750.206 146.766 740.886C144.819 729.699 141.659 718.619 141.859 707.166C140.032 696.993 139.072 686.699 138.406 676.379L138.046 675.353C134.726 667.846 136.179 659.486 136.112 651.539C137.086 634.539 134.459 617.446 137.219 600.539C137.326 597.406 137.512 594.273 138.139 591.206L136.806 590.513C136.259 590.233 135.179 589.659 134.646 589.366C133.552 577.859 133.619 566.259 132.526 554.739C133.032 554.966 134.072 555.419 134.592 555.646C134.286 553.139 133.832 550.659 133.312 548.206C132.046 545.019 130.752 541.766 130.566 538.313C129.979 529.793 128.739 521.339 127.672 512.873C118.926 512.126 109.526 514.993 101.392 510.646Z" fill="#9C1D16"/>
<path d="M101.192 574.233C100.139 558.086 101.392 541.859 99.4855 525.779C99.3522 533.153 99.1655 540.539 98.6855 547.913C98.3655 562.046 99.4989 576.166 99.1122 590.313C98.8722 595.459 100.326 600.419 102.139 605.179C102.832 594.846 100.872 584.566 101.192 574.233Z" fill="#902D2A"/>
<path d="M42.3921 536.406C41.0455 545.46 41.7255 554.633 41.6721 563.753L43.0854 563.686C42.8721 554.593 43.1655 545.473 42.3921 536.406Z" fill="#57524E"/>
<path d="M134.592 555.646C134.072 555.419 133.032 554.966 132.526 554.739C133.619 566.259 133.552 577.859 134.646 589.366C135.179 589.659 136.259 590.233 136.806 590.513C136.566 578.859 135.766 567.246 134.592 555.646Z" fill="#90302E"/>
<path d="M138.819 570.993C136.019 571.739 137.805 575.713 138.259 577.673L138.619 578.139C138.965 575.859 140.419 573.046 138.819 570.993Z" fill="#6D5450"/>
<path d="M138.619 578.139L138.259 577.673C138.525 581.726 138.499 585.806 138.272 589.886C139.339 601.539 138.725 613.246 139.072 624.926C139.085 638.393 139.712 651.926 138.059 665.326C137.992 668.66 137.925 672.006 138.045 675.353L138.405 676.379C138.659 672.713 139.112 669.073 139.619 665.446C140.285 670.06 140.645 674.726 140.565 679.406C141.525 678.513 142.485 677.633 143.445 676.753C142.485 670.62 143.139 664.406 143.125 658.246C143.259 642.246 143.019 626.246 143.125 610.246C143.099 605.646 142.699 601.06 142.192 596.513C141.832 613.086 141.939 629.66 142.005 646.246C142.152 652.686 142.139 659.139 141.259 665.539C140.672 662.246 140.085 658.94 140.005 655.606C139.952 639.14 140.259 622.686 140.352 606.233C140.379 601.966 141.072 597.766 141.859 593.606C141.832 592.86 141.779 591.379 141.752 590.646C141.045 586.393 139.952 582.219 138.619 578.139Z" fill="#34271F"/>
<path d="M138.272 589.886L138.139 591.206C137.512 594.273 137.326 597.406 137.219 600.54C138.152 622.126 136.966 643.74 138.059 665.326C139.712 651.926 139.085 638.393 139.072 624.926C138.725 613.246 139.339 601.54 138.272 589.886Z" fill="#0B0200"/>
<path d="M141.859 593.606C141.072 597.766 140.379 601.966 140.352 606.233C140.259 622.686 139.952 639.139 140.005 655.606C140.085 658.939 140.672 662.246 141.259 665.539C142.139 659.139 142.152 652.686 142.005 646.246C141.939 629.659 141.832 613.086 142.192 596.513C142.112 595.779 141.939 594.326 141.859 593.606Z" fill="#090100"/>
<path d="M137.219 600.54C134.459 617.446 137.085 634.54 136.112 651.54C136.179 659.486 134.725 667.846 138.045 675.353C137.925 672.006 137.992 668.66 138.059 665.326C136.966 643.74 138.152 622.126 137.219 600.54Z" fill="#B5332D"/>
<path d="M76.2589 610.073C73.5522 609.993 70.8455 609.979 68.1389 610.019C67.8855 610.419 67.3789 611.206 67.1122 611.606C70.4322 611.659 73.7389 611.713 77.0455 611.793C76.8455 611.366 76.4589 610.499 76.2589 610.073Z" fill="#AFB0AB"/>
<path d="M17.8855 621.819C17.5255 620.526 17.1388 619.246 16.7255 617.993C15.8855 630.193 16.0188 642.473 17.1655 654.646C17.5255 650.913 17.8055 647.179 17.8188 643.433C17.4055 636.233 17.7388 629.019 17.8855 621.819Z" fill="#7E7F7A"/>
<path d="M97.0455 625.419C89.6855 621.993 83.1655 631.993 86.8855 638.273C88.8188 641.393 92.0055 644.673 96.0455 643.419C103.592 641.126 103.765 628.833 97.0455 625.419ZM97.1255 635.406C96.4055 636.206 94.9922 637.819 94.2722 638.619C93.2588 637.153 92.2322 635.686 91.4055 634.113C91.5788 632.259 92.6988 630.646 93.3788 628.966C95.0855 630.819 96.3788 632.979 97.1255 635.406Z" fill="#0B0909"/>
<path d="M97.1255 635.406C96.3788 632.979 95.0855 630.819 93.3788 628.966C92.6988 630.646 91.5788 632.259 91.4055 634.113C92.2322 635.686 93.2588 637.153 94.2722 638.619C94.9922 637.819 96.4055 636.206 97.1255 635.406Z" fill="#60615F"/>
<path d="M140.565 679.406C140.645 674.726 140.285 670.06 139.619 665.446C139.112 669.073 138.659 672.713 138.405 676.38C139.072 686.7 140.032 696.993 141.859 707.166C147.592 728.113 150.192 749.793 152.645 771.34C153.859 781.22 153.939 791.206 153.712 801.14C154.339 794.633 154.699 788.113 155.499 781.633C156.059 785.526 156.539 789.433 156.992 793.353C157.645 789.486 158.365 785.646 158.859 781.766C159.485 777.833 157.792 774.113 157.632 770.246C155.925 745.806 150.819 721.806 145.792 697.886C144.099 690.953 144.432 683.78 143.445 676.753C142.485 677.633 141.525 678.513 140.565 679.406Z" fill="#251009"/>
<path d="M152.645 771.339C150.192 749.793 147.592 728.113 141.859 707.166C141.659 718.619 144.819 729.699 146.765 740.886C148.512 750.206 149.165 759.673 150.325 769.086C151.272 777.446 152.685 785.833 152.272 794.286C151.952 804.846 148.139 814.886 147.365 825.406C151.259 817.899 152.805 809.473 153.712 801.139C153.939 791.206 153.859 781.219 152.645 771.339Z" fill="#97332C"/>
<path d="M93.6455 715.353C88.4588 713.673 83.4721 716.433 78.5788 717.793C70.1121 720.486 61.1388 720.14 52.4055 721.22C51.6055 725.713 50.4055 730.686 52.8055 734.94C55.1655 738.433 59.4588 739.74 63.3522 740.686C79.4988 744.126 95.8055 747.406 112.352 747.726C118.779 748.006 124.072 741.766 124.179 735.606C124.659 730.5 124.112 723.38 118.379 721.433C110.405 718.446 101.832 717.646 93.6455 715.353ZM112.339 728.846C112.405 732.113 113.219 735.686 111.512 738.726C108.899 739.98 105.819 739.286 103.019 739.5C101.632 736.006 101.592 732.3 102.832 728.766C106.005 728.78 109.165 728.806 112.339 728.846Z" fill="#414040"/>
</g>
<defs>
<clipPath id="clip0_58_2">
<rect width="159" height="847" fill="white" transform="matrix(-1 0 0 1 159 0)"/>
</clipPath>
</defs>
</svg>
